<svg xmlns="http://www.w3.org/2000/svg" viewBox="0 0 292 201"><defs><style>.a{fill:lime;stroke:#000;stroke-miterlimit:10;stroke-width:2px;}.b{fill:#fbb03b;}</style></defs><rect class="a" x="225" y="22" width="48" height="48"/><rect class="a" x="225" y="82" width="48" height="48"/><rect class="a" x="225" y="142" width="48" height="48"/><path d="M137,63.52v-35h11.66a13.36,13.36,0,0,1,6.1,1.34,9.74,9.74,0,0,1,4.08,3.8,11,11,0,0,1,1.44,5.66,11,11,0,0,1-1.44,5.66,9.74,9.74,0,0,1-4.08,3.8,13.36,13.36,0,0,1-6.1,1.34H143V63.52ZM148.62,44.7a5.48,5.48,0,0,0,4-1.48,5.29,5.29,0,0,0,1.51-3.94,5.32,5.32,0,0,0-1.49-4,5.47,5.47,0,0,0-4-1.46H143V44.7Z"/><path d="M166.43,63.52l-3.6-35H168L170.12,53q.24,2.2.39,6.48l.62-6.48L174,28.48h5L181.74,53l.77,6.48q.13-4.27.38-6.48L185,28.48h5.13l-3.79,35h-6.62l-2.6-24.58q-.29-2.4-.57-6.67c-.19,2.85-.39,5.07-.58,6.67L173.1,63.52Z"/><path d="M194.51,63.52v-35H205.6a13.46,13.46,0,0,1,6.07,1.3,9.57,9.57,0,0,1,4,3.64,10.48,10.48,0,0,1,1.42,5.48A10.89,10.89,0,0,1,215.39,45a9.41,9.41,0,0,1-4.75,3.75l7,14.78h-6.72l-6.1-13.92h-4.27V63.52ZM205.6,44.37a5.44,5.44,0,0,0,4-1.42A5.13,5.13,0,0,0,211,39.09a5.29,5.29,0,0,0-1.46-3.94,5.41,5.41,0,0,0-4-1.44h-5.09V44.37Z"/><path d="M79.12,123.52v-35h7.34L96.2,116.8q-.66-7.29-.67-11.71V88.48H101v35H93.66L84,95.2q.58,6.76.58,11.18v17.14Z"/><path d="M108.11,123.52v-35H119.2a13.46,13.46,0,0,1,6.07,1.3,9.51,9.51,0,0,1,4,3.64,10.48,10.48,0,0,1,1.42,5.48A10.89,10.89,0,0,1,129,105a9.41,9.41,0,0,1-4.75,3.75l7,14.78h-6.72l-6.1-13.92h-4.27v13.92Zm11.09-19.15a5.44,5.44,0,0,0,4-1.42,5.13,5.13,0,0,0,1.46-3.86,5.29,5.29,0,0,0-1.46-3.94,5.41,5.41,0,0,0-4-1.44h-5.09v10.66Z"/><path d="M143.1,123.52h-6v-35h21.79v5.57H143v9.41h14.64V109H143.1Z"/><path d="M165.85,123.52v-5.81l11-11a22.2,22.2,0,0,0,3.43-4.3,7.7,7.7,0,0,0,1.08-3.86A5.28,5.28,0,0,0,180,94.77a4.82,4.82,0,0,0-3.67-1.39,5.32,5.32,0,0,0-4,1.46,5.55,5.55,0,0,0-1.44,4.06h-6a10.81,10.81,0,0,1,3.19-8,11.57,11.57,0,0,1,8.33-3,12.6,12.6,0,0,1,5.74,1.25A9,9,0,0,1,186,92.8a10.35,10.35,0,0,1,1.35,5.33,12.9,12.9,0,0,1-1.66,6.26,27.91,27.91,0,0,1-5.3,6.55l-7.3,7.16h14.69v5.42Z"/><path d="M215.58,123.52h-6v-7H194v-8.69l13.49-19.39h6.72l-14.45,21v1.82h9.84v-7.92h6Z"/><path d="M108.16,183.52v-35h11.66a13.36,13.36,0,0,1,6.1,1.34,9.74,9.74,0,0,1,4.08,3.8,11.84,11.84,0,0,1,0,11.32,9.74,9.74,0,0,1-4.08,3.8,13.36,13.36,0,0,1-6.1,1.34h-5.66v13.44Zm11.66-18.82a5.48,5.48,0,0,0,4-1.48,6,6,0,0,0,0-7.9,5.47,5.47,0,0,0-4-1.46h-5.66V164.7Z"/><path d="M141.08,183.52h-6.14l8.83-35h7.73l8.88,35h-6.14l-1.92-8.5H143Zm3-13.39h7.1l-2.11-9.41c-.8-3.62-1.28-5.95-1.44-7q-.24,1.64-1.44,7Z"/><path d="M186.54,183.52H166.38v-5.28h7.06V153.76h-7.06v-5.28h20.16v5.28h-7.06v24.48h7.06Z"/><path d="M194.51,183.52v-35H205.6a13.46,13.46,0,0,1,6.07,1.3,9.57,9.57,0,0,1,4,3.64,10.48,10.48,0,0,1,1.42,5.48,10.89,10.89,0,0,1-1.73,6.09,9.41,9.41,0,0,1-4.75,3.75l7,14.78h-6.72l-6.1-13.92h-4.27v13.92Zm11.09-19.15a5.44,5.44,0,0,0,4-1.42,5.13,5.13,0,0,0,1.46-3.86,5.29,5.29,0,0,0-1.46-3.94,5.41,5.41,0,0,0-4-1.44h-5.09v10.66Z"/><circle class="b" cx="102" cy="47" r="24"/><path d="M108.94,58.1h-16l.71-4.34h6.14L102.2,38.3l-7,4.61.84-5.18,6.34-4h5.51l-3.17,20h4.87Z"/><circle class="b" cx="43" cy="106" r="24"/><path d="M33.58,117.1l.73-4.71,8.95-7.48A14.76,14.76,0,0,0,46,102a4.87,4.87,0,0,0,.86-2.77,2.3,2.3,0,0,0-.65-1.75,2.58,2.58,0,0,0-1.86-.62,3.64,3.64,0,0,0-2.5.88,3.93,3.93,0,0,0-1.24,2.46h-5a8.93,8.93,0,0,1,3.16-5.71,9.68,9.68,0,0,1,6.39-2.14,7.43,7.43,0,0,1,5,1.57A5.28,5.28,0,0,1,52,98.2a9.51,9.51,0,0,1-.1,1.24A11.09,11.09,0,0,1,50,104a22.14,22.14,0,0,1-4.42,4.54l-5,4H50l-.7,4.51Z"/><circle class="b" cx="72" cy="166" r="24"/><path d="M81.14,152.72l-.7,4.31-5.74,4.44a6.57,6.57,0,0,1,3.72,1.91,5.2,5.2,0,0,1,1.32,3.67,8.88,8.88,0,0,1-.1,1.33l-.3,2a7.51,7.51,0,0,1-3,5.11,10.14,10.14,0,0,1-6.29,1.9,8.08,8.08,0,0,1-5.23-1.52A5.1,5.1,0,0,1,63,171.72a8,8,0,0,1,.1-1.3h5a3.53,3.53,0,0,0-.07.6,2,2,0,0,0,.7,1.65,3.06,3.06,0,0,0,2,.59,3.86,3.86,0,0,0,2.45-.73,3.29,3.29,0,0,0,1.15-2.11l.3-2a4.52,4.52,0,0,0,.07-.64,2,2,0,0,0-.7-1.65,3.12,3.12,0,0,0-2-.58H69.09l.67-4.31,5.61-4.34h-9l.67-4.18Z"/></svg>