<svg xmlns="http://www.w3.org/2000/svg" viewBox="0 0 479 699.5"><defs><style>.a,.l{fill:#fff;}.a,.b,.c,.d{stroke:#000;}.a,.b,.c,.d,.j,.m{stroke-miterlimit:10;}.b,.h{fill:lime;}.b,.c,.d{stroke-width:2px;}.c,.e{fill:red;}.d{fill:#ff0;}.f{fill:#009245;}.g{fill:#2e3192;}.i{fill:#666;}.j,.m{fill:none;}.j{stroke:#666;}.k{fill:#4d4d4d;}.m{stroke:#4d4d4d;}.n{fill:#fbb03b;}</style></defs><rect class="a" x="10" y="229" width="460" height="400"/><path d="M15,235.11a9.1,9.1,0,0,1-3.22-7.22h6a4.14,4.14,0,0,0,1.56,3.41,6.64,6.64,0,0,0,4.25,1.24,6.13,6.13,0,0,0,4.06-1.22A4.14,4.14,0,0,0,29.11,228a4.74,4.74,0,0,0-1.05-3.07,5.65,5.65,0,0,0-2.93-1.82l-4-1.11a11.67,11.67,0,0,1-6.34-3.79,10.08,10.08,0,0,1-2.26-6.62,9.11,9.11,0,0,1,3-7.13,11.56,11.56,0,0,1,8-2.66,11.82,11.82,0,0,1,8,2.61,9,9,0,0,1,3,7h-6a4.08,4.08,0,0,0-1.34-3.24A5.6,5.6,0,0,0,23.45,207a5.5,5.5,0,0,0-3.65,1.1,3.9,3.9,0,0,0-1.3,3.12,4.93,4.93,0,0,0,1,3.12,5.12,5.12,0,0,0,2.83,1.78l4.18,1.15a12.07,12.07,0,0,1,6.36,3.79,10.08,10.08,0,0,1,2.23,6.67A9.63,9.63,0,0,1,33.67,233a9.51,9.51,0,0,1-4.05,3.53,14,14,0,0,1-6.08,1.25Q18.17,237.78,15,235.11Z" transform="translate(0 -21)"/><path d="M55.27,237.3H49.22V207.82H40.06v-5.56H64.44v5.56H55.27Z" transform="translate(0 -21)"/><path d="M69.34,237.3v-35h7.1l3.41,11.18c.57,1.92,1,3.6,1.29,5a50.73,50.73,0,0,1,1.25-5.09l3.27-11.13h7.1v35H87.14V226.4c0-2.94.14-6.29.41-10s.6-7.31,1-10.71l-4.71,16.56H78.36l-4.85-16.56c.42,3.27.76,6.76,1,10.49S75,223.3,75,226.4v10.9Z" transform="translate(0 -21)"/><path d="M120.79,227.7a10,10,0,0,1-1.39,5.3,9.27,9.27,0,0,1-3.94,3.53,14.67,14.67,0,0,1-11.85,0A9.27,9.27,0,0,1,99.67,233a10,10,0,0,1-1.39-5.3h6a4.84,4.84,0,0,0,1.37,3.67,6.22,6.22,0,0,0,7.7,0,4.63,4.63,0,0,0,1.34-3.64V225a4.9,4.9,0,0,0-1.34-3.7,5.34,5.34,0,0,0-3.84-1.29h-3.94v-5.43l7.73-7.15H99.86v-5.13h19.59v5.42l-7.87,7.25a10.53,10.53,0,0,1,6.72,3.19,9.73,9.73,0,0,1,2.44,6.84Z" transform="translate(0 -21)"/><path d="M128,237.3v-5.81l10.94-11a22.22,22.22,0,0,0,3.44-4.3,7.7,7.7,0,0,0,1.08-3.86,5.31,5.31,0,0,0-1.32-3.8,4.86,4.86,0,0,0-3.68-1.39,5.32,5.32,0,0,0-4,1.47,5.51,5.51,0,0,0-1.44,4h-6a10.75,10.75,0,0,1,3.19-7.94,11.57,11.57,0,0,1,8.33-2.95,12.6,12.6,0,0,1,5.74,1.24,9,9,0,0,1,3.81,3.56,10.31,10.31,0,0,1,1.35,5.32,13,13,0,0,1-1.66,6.27,28.11,28.11,0,0,1-5.3,6.55l-7.3,7.15h14.69v5.43Z" transform="translate(0 -21)"/><path d="M172.2,210.9h6v26.4a8,8,0,0,1-2.64,6.31,10.58,10.58,0,0,1-7.25,2.33h-7.92v-5h7.83a4.23,4.23,0,0,0,3-1,3.73,3.73,0,0,0,1-2.83v-2l.14-4.36H172a5.89,5.89,0,0,1-2.28,3.67,7.53,7.53,0,0,1-4.54,1.27,7.9,7.9,0,0,1-6.33-2.74,10.93,10.93,0,0,1-2.36-7.39V220.5a10.89,10.89,0,0,1,2.36-7.35,7.92,7.92,0,0,1,6.33-2.73,7.53,7.53,0,0,1,4.54,1.27,5.89,5.89,0,0,1,2.28,3.67h.33Zm-1.34,18.31a5.35,5.35,0,0,0,1.29-3.82v-4.61a5.33,5.33,0,0,0-1.29-3.81,4.69,4.69,0,0,0-3.56-1.37,4.63,4.63,0,0,0-3.55,1.34,5.46,5.46,0,0,0-1.25,3.84v4.61a5.43,5.43,0,0,0,1.25,3.84,4.6,4.6,0,0,0,3.55,1.35A4.69,4.69,0,0,0,170.86,229.21Z" transform="translate(0 -21)"/><path d="M206,213.06a10.32,10.32,0,0,1,2.45,7.29v1.92H202.2v-1.49a5.49,5.49,0,0,0-1.32-3.93,4.75,4.75,0,0,0-3.62-1.39,4.63,4.63,0,0,0-3.6,1.41,5.56,5.56,0,0,0-1.3,3.91V237.3h-6V210.9H192v5h0a6.89,6.89,0,0,1,2.45-4.13,7.69,7.69,0,0,1,4.8-1.39A8.71,8.71,0,0,1,206,213.06Z" transform="translate(0 -21)"/><path d="M233.06,212.77a8.18,8.18,0,0,1,2.79,6.62V237.3H230v-4.61h-.1a5.62,5.62,0,0,1-2.61,3.72,9.68,9.68,0,0,1-5.31,1.37,9.07,9.07,0,0,1-6.33-2.14,8.36,8.36,0,0,1,.24-11.86c1.73-1.42,4.17-2.13,7.34-2.13h6.58v-2.21a3.8,3.8,0,0,0-1.2-3,5,5,0,0,0-3.46-1.06,5.88,5.88,0,0,0-3.29.84,3.36,3.36,0,0,0-1.51,2.38h-5.85a8.38,8.38,0,0,1,3.33-6,11.93,11.93,0,0,1,7.42-2.2Q230.29,210.42,233.06,212.77ZM228.26,232a4.11,4.11,0,0,0,1.59-3.41v-3.22h-6.48a4.08,4.08,0,0,0-2.93,1.06,3.71,3.71,0,0,0-1.1,2.83,3.63,3.63,0,0,0,1.24,2.9,5.14,5.14,0,0,0,3.46,1.08A6.62,6.62,0,0,0,228.26,232Z" transform="translate(0 -21)"/><path d="M264.33,212.26a7.71,7.71,0,0,1,1.47,4.92V237.3h-5.28V217.62a3.59,3.59,0,0,0-.58-2.21,2,2,0,0,0-1.68-.77,2,2,0,0,0-1.68.77,3.66,3.66,0,0,0-.57,2.21V237.3h-4.32V217.62a3.53,3.53,0,0,0-.6-2.21,2.11,2.11,0,0,0-1.76-.77c-1.4,0-2.11,1-2.11,3V237.3h-5.28V210.9h4.9v3.55h.24a4.59,4.59,0,0,1,1.44-2.95,4.28,4.28,0,0,1,3-1.08,3.81,3.81,0,0,1,2.73,1.05,5.51,5.51,0,0,1,1.49,3H256a4.59,4.59,0,0,1,1.44-2.95,4.41,4.41,0,0,1,3.07-1.08A4.67,4.67,0,0,1,264.33,212.26Z" transform="translate(0 -21)"/><rect class="b" x="413" y="1" width="48" height="48"/><rect class="c" x="413" y="61" width="48" height="48"/><rect class="d" x="413" y="121" width="48" height="48"/><path d="M325,63.52v-35h11.66a13.36,13.36,0,0,1,6.1,1.34,9.74,9.74,0,0,1,4.08,3.8,11,11,0,0,1,1.44,5.66,11,11,0,0,1-1.44,5.66,9.74,9.74,0,0,1-4.08,3.8,13.36,13.36,0,0,1-6.1,1.34H331V63.52ZM336.62,44.7a5.48,5.48,0,0,0,4-1.48,5.29,5.29,0,0,0,1.51-3.94,5.32,5.32,0,0,0-1.49-4,5.47,5.47,0,0,0-4-1.46H331V44.7Z" transform="translate(0 -21)"/><path d="M354.43,63.52l-3.6-35H356L358.12,53q.24,2.2.39,6.48l.62-6.48L362,28.48h5L369.74,53l.77,6.48q.14-4.27.38-6.48L373,28.48h5.13l-3.79,35h-6.62l-2.6-24.58q-.29-2.4-.57-6.67c-.19,2.85-.39,5.07-.58,6.67L361.1,63.52Z" transform="translate(0 -21)"/><path d="M382.51,63.52v-35H393.6a13.46,13.46,0,0,1,6.07,1.3,9.57,9.57,0,0,1,4,3.64,10.48,10.48,0,0,1,1.42,5.48A10.89,10.89,0,0,1,403.39,45a9.41,9.41,0,0,1-4.75,3.75l7,14.78h-6.72l-6.1-13.92h-4.27V63.52ZM393.6,44.37a5.44,5.44,0,0,0,4-1.42A5.13,5.13,0,0,0,399,39.09a5.29,5.29,0,0,0-1.46-3.94,5.41,5.41,0,0,0-4-1.44h-5.09V44.37Z" transform="translate(0 -21)"/><path d="M267.12,123.52v-35h7.34l9.74,28.32q-.66-7.29-.67-11.71V88.48H289v35h-7.34L272,95.2q.58,6.76.58,11.18v17.14Z" transform="translate(0 -21)"/><path d="M296.11,123.52v-35H307.2a13.46,13.46,0,0,1,6.07,1.3,9.51,9.51,0,0,1,4,3.64,10.48,10.48,0,0,1,1.42,5.48A10.89,10.89,0,0,1,317,105a9.41,9.41,0,0,1-4.75,3.75l7,14.78h-6.72l-6.1-13.92h-4.27v13.92Zm11.09-19.15a5.44,5.44,0,0,0,4-1.42,5.13,5.13,0,0,0,1.46-3.86,5.29,5.29,0,0,0-1.46-3.94,5.41,5.41,0,0,0-4-1.44h-5.09v10.66Z" transform="translate(0 -21)"/><path d="M331.1,123.52h-6v-35h21.79v5.57H331v9.41h14.64V109H331.1Z" transform="translate(0 -21)"/><path d="M353.85,123.52v-5.81l10.95-11a22.2,22.2,0,0,0,3.43-4.3,7.7,7.7,0,0,0,1.08-3.86A5.28,5.28,0,0,0,368,94.77a4.82,4.82,0,0,0-3.67-1.39,5.32,5.32,0,0,0-4,1.46,5.55,5.55,0,0,0-1.44,4.06h-6a10.81,10.81,0,0,1,3.19-8,11.57,11.57,0,0,1,8.33-3,12.6,12.6,0,0,1,5.74,1.25A9,9,0,0,1,374,92.8a10.35,10.35,0,0,1,1.35,5.33,12.9,12.9,0,0,1-1.66,6.26,27.91,27.91,0,0,1-5.3,6.55l-7.3,7.16h14.69v5.42Z" transform="translate(0 -21)"/><path d="M403.58,123.52h-6v-7H382v-8.69l13.49-19.39h6.72l-14.45,21v1.82h9.84v-7.92h6Z" transform="translate(0 -21)"/><path d="M296.16,183.52v-35h11.66a13.36,13.36,0,0,1,6.1,1.34,9.74,9.74,0,0,1,4.08,3.8,11.84,11.84,0,0,1,0,11.32,9.74,9.74,0,0,1-4.08,3.8,13.36,13.36,0,0,1-6.1,1.34h-5.66v13.44Zm11.66-18.82a5.48,5.48,0,0,0,4-1.48,6,6,0,0,0,0-7.9,5.47,5.47,0,0,0-4-1.46h-5.66V164.7Z" transform="translate(0 -21)"/><path d="M329.08,183.52h-6.14l8.83-35h7.73l8.88,35h-6.14l-1.92-8.5H331Zm3-13.39h7.1l-2.11-9.41c-.8-3.62-1.28-5.95-1.44-7q-.24,1.64-1.44,7Z" transform="translate(0 -21)"/><path d="M374.54,183.52H354.38v-5.28h7.06V153.76h-7.06v-5.28h20.16v5.28h-7.06v24.48h7.06Z" transform="translate(0 -21)"/><path d="M382.51,183.52v-35H393.6a13.46,13.46,0,0,1,6.07,1.3,9.57,9.57,0,0,1,4,3.64,10.48,10.48,0,0,1,1.42,5.48,10.89,10.89,0,0,1-1.73,6.09,9.41,9.41,0,0,1-4.75,3.75l7,14.78h-6.72l-6.1-13.92h-4.27v13.92Zm11.09-19.15a5.44,5.44,0,0,0,4-1.42,5.13,5.13,0,0,0,1.46-3.86,5.29,5.29,0,0,0-1.46-3.94,5.41,5.41,0,0,0-4-1.44h-5.09v10.66Z" transform="translate(0 -21)"/><path d="M176.32,50.31,67.68,113a5.63,5.63,0,0,0,.51,10.13l24.92,10.45,67.34-59.35a1.41,1.41,0,0,1,2,2L106,145v18.87a5.62,5.62,0,0,0,10,3.71l14.89-18.12,29.2,12.23a5.64,5.64,0,0,0,7.74-4.26L184.66,56.13A5.62,5.62,0,0,0,176.32,50.31Z" transform="translate(0 -21)"/><path class="e" d="M119.33,679V661.51H123l4.87,14.16c-.22-2.43-.33-4.39-.33-5.86v-8.3h2.73V679H126.6l-4.82-14.16c.19,2.25.29,4.12.29,5.59V679Z" transform="translate(0 -21)"/><path class="e" d="M135.21,677.86a4.93,4.93,0,0,1-1.48-3.78v-3.31a5,5,0,0,1,1.48-3.78,6.4,6.4,0,0,1,8,0,5,5,0,0,1,1.47,3.76v3.33a5,5,0,0,1-1.47,3.78,6.36,6.36,0,0,1-8,0ZM141,676a2.65,2.65,0,0,0,.63-1.91v-3.31a2.67,2.67,0,0,0-.63-1.91,2.45,2.45,0,0,0-1.84-.66,2.41,2.41,0,0,0-1.83.66,2.63,2.63,0,0,0-.64,1.91v3.31a2.61,2.61,0,0,0,.64,1.91,2.41,2.41,0,0,0,1.83.66A2.45,2.45,0,0,0,141,676Z" transform="translate(0 -21)"/><path class="e" d="M155,679a4,4,0,0,1-3-1,3.87,3.87,0,0,1-1.07-2.91v-6.53h-3.58v-2.71H151v-3.6h3v3.6h5.07v2.71H154v6.53a1.1,1.1,0,0,0,1.23,1.25h3.6V679Z" transform="translate(0 -21)"/><path class="e" d="M173.47,673.15h-8.06v.93c0,1.88.88,2.81,2.64,2.81a3.13,3.13,0,0,0,1.61-.35,1.6,1.6,0,0,0,.77-1h3a4.18,4.18,0,0,1-1.8,2.73,6.09,6.09,0,0,1-3.57,1,6.23,6.23,0,0,1-2.92-.65,4.7,4.7,0,0,1-1.91-1.81,5.36,5.36,0,0,1-.67-2.73v-3.31a5.3,5.3,0,0,1,.67-2.72,4.6,4.6,0,0,1,1.92-1.81,6.12,6.12,0,0,1,2.91-.65,6,6,0,0,1,2.88.65,4.64,4.64,0,0,1,1.89,1.81,5.3,5.3,0,0,1,.67,2.72Zm-8.06-1.87,5.18,0v-.48a3.06,3.06,0,0,0-.64-2.11,3,3,0,0,0-3.88,0,3.06,3.06,0,0,0-.66,2.12Z" transform="translate(0 -21)"/><path class="e" d="M182.16,669.62a1.95,1.95,0,0,1-2-2,2,2,0,0,1,.57-1.45,2,2,0,0,1,1.44-.56h.48a2,2,0,0,1,1.44.56,1.93,1.93,0,0,1,.58,1.45,2,2,0,0,1-.57,1.44,1.91,1.91,0,0,1-1.45.58Zm0,9.65a2,2,0,0,1-1.45-.57,1.94,1.94,0,0,1-.56-1.45,1.95,1.95,0,0,1,2-2h.48a2,2,0,1,1,0,4Z" transform="translate(0 -21)"/><path class="e" d="M207.91,679h-3.07l4.42-17.52h3.86L217.56,679h-3.07l-1-4.25h-4.66Zm1.52-6.7H213l-1.06-4.7q-.6-2.71-.72-3.51-.12.82-.72,3.48Z" transform="translate(0 -21)"/><path class="e" d="M227.52,679a4.25,4.25,0,0,1-3.15-1.18,4.11,4.11,0,0,1-1.19-3.09V664.22h-4v-2.71h7v13.25a1.52,1.52,0,0,0,.42,1.12,1.48,1.48,0,0,0,1.11.44h4.11V679Z" transform="translate(0 -21)"/><path class="e" d="M244.9,666.91a5.18,5.18,0,0,1,1.22,3.65v1H243v-.75a2.76,2.76,0,0,0-.66-2,2.4,2.4,0,0,0-1.81-.69,2.29,2.29,0,0,0-1.8.71,2.74,2.74,0,0,0-.65,1.95V679h-3v-13.2h2.83v2.52h0a3.5,3.5,0,0,1,1.23-2.07,3.86,3.86,0,0,1,2.4-.69A4.37,4.37,0,0,1,244.9,666.91Z" transform="translate(0 -21)"/><path class="e" d="M259.87,673.15h-8.06v.93c0,1.88.88,2.81,2.64,2.81a3.13,3.13,0,0,0,1.61-.35,1.6,1.6,0,0,0,.77-1h3a4.18,4.18,0,0,1-1.8,2.73,6.1,6.1,0,0,1-3.58,1,6.19,6.19,0,0,1-2.91-.65,4.64,4.64,0,0,1-1.91-1.81,5.36,5.36,0,0,1-.67-2.73v-3.31a5.3,5.3,0,0,1,.67-2.72,4.6,4.6,0,0,1,1.92-1.81,6.11,6.11,0,0,1,2.9-.65,6,6,0,0,1,2.88.65,4.61,4.61,0,0,1,1.9,1.81,5.3,5.3,0,0,1,.67,2.72Zm-8.06-1.87,5.18,0v-.48a3,3,0,0,0-.65-2.11,2.45,2.45,0,0,0-1.92-.72,2.48,2.48,0,0,0-1.95.73,3.06,3.06,0,0,0-.66,2.12Z" transform="translate(0 -21)"/><path class="e" d="M272.81,666.76a4.11,4.11,0,0,1,1.39,3.32V679h-2.9v-2.31h-.05a2.79,2.79,0,0,1-1.31,1.86,4.79,4.79,0,0,1-2.65.69,4.54,4.54,0,0,1-3.17-1.07,4.17,4.17,0,0,1,.12-5.93,5.63,5.63,0,0,1,3.67-1.07h3.29v-1.1a1.89,1.89,0,0,0-.6-1.51,2.56,2.56,0,0,0-1.73-.53,2.91,2.91,0,0,0-1.64.42,1.67,1.67,0,0,0-.76,1.19h-2.93a4.21,4.21,0,0,1,1.67-3,6,6,0,0,1,3.71-1.1A5.88,5.88,0,0,1,272.81,666.76Zm-2.4,9.63a2.06,2.06,0,0,0,.79-1.71v-1.6H268a2,2,0,0,0-1.46.52,1.89,1.89,0,0,0-.56,1.42,1.81,1.81,0,0,0,.63,1.45,2.54,2.54,0,0,0,1.73.54A3.35,3.35,0,0,0,270.41,676.39Z" transform="translate(0 -21)"/><path class="e" d="M285.55,661.51h3V679h-2.93v-2.52h0a3.06,3.06,0,0,1-1.12,2,3.78,3.78,0,0,1-2.39.73,4,4,0,0,1-3.17-1.36,5.44,5.44,0,0,1-1.17-3.68v-3.58A5.48,5.48,0,0,1,278.9,667a4,4,0,0,1,3.17-1.37,3.72,3.72,0,0,1,2.39.73,3,3,0,0,1,1.12,2h.07l-.1-3.15ZM284.92,676a2.7,2.7,0,0,0,.63-1.91v-3.31a2.65,2.65,0,0,0-.63-1.89,2.71,2.71,0,0,0-3.57,0,2.71,2.71,0,0,0-.62,1.91v3.31a2.72,2.72,0,0,0,.62,1.92,2.67,2.67,0,0,0,3.57,0Z" transform="translate(0 -21)"/><path class="e" d="M294.46,683.35l1.87-5-5-12.48h3.26l2.43,6.77a26,26,0,0,1,.69,2.52c.24-1.06.47-1.9.68-2.52l2.25-6.77h3.17l-6.22,17.52Z" transform="translate(0 -21)"/><path class="e" d="M322.4,677.86a5,5,0,0,1-1.47-3.78v-7.63a5,5,0,0,1,1.47-3.78,6.4,6.4,0,0,1,8,0,4.93,4.93,0,0,1,1.48,3.76v7.65a4.93,4.93,0,0,1-1.48,3.78,6.36,6.36,0,0,1-8,0Zm5.85-1.87a2.69,2.69,0,0,0,.62-1.91v-7.63a2.71,2.71,0,0,0-.62-1.91,2.92,2.92,0,0,0-3.7,0,2.66,2.66,0,0,0-.62,1.91v7.63a2.65,2.65,0,0,0,.63,1.91,2.91,2.91,0,0,0,3.69,0Z" transform="translate(0 -21)"/><path class="e" d="M335.33,679V661.51H339l4.87,14.16c-.22-2.43-.34-4.39-.34-5.86v-8.3h2.74V679H342.6l-4.83-14.16c.2,2.25.29,4.12.29,5.59V679Z" transform="translate(0 -21)"/><path class="e" d="M354.84,679.15a1.62,1.62,0,0,1-1.2-.45,1.48,1.48,0,0,1-.46-1.14,1.51,1.51,0,0,1,.46-1.14,1.66,1.66,0,0,1,1.2-.44h.72a1.69,1.69,0,0,1,1.2.44,1.69,1.69,0,0,1,0,2.3,1.77,1.77,0,0,1-1.23.43Zm1.46-5.71h-2.21l-.52-8.62v-3.31h3.26v3.31Z" transform="translate(0 -21)"/><path class="f" d="M270.94,626.64a3.91,3.91,0,0,1,.73,2.46v10.06H269v-9.84a1.8,1.8,0,0,0-.29-1.1,1.1,1.1,0,0,0-1.68,0,1.8,1.8,0,0,0-.29,1.1v9.84h-2.16v-9.84a1.74,1.74,0,0,0-.3-1.1,1,1,0,0,0-.87-.39c-.71,0-1.06.5-1.06,1.49v9.84h-2.64V626h2.45v1.78h.12a2.3,2.3,0,0,1,.72-1.48,2.13,2.13,0,0,1,1.49-.54,1.89,1.89,0,0,1,1.36.53,2.74,2.74,0,0,1,.75,1.49h.12a2.3,2.3,0,0,1,.72-1.48,2.2,2.2,0,0,1,1.53-.54A2.37,2.37,0,0,1,270.94,626.64Z" transform="translate(0 -21)"/><path class="f" d="M285.56,633.28H277.5v.94c0,1.87.88,2.8,2.64,2.8a3.24,3.24,0,0,0,1.61-.34,1.65,1.65,0,0,0,.77-1h3a4.18,4.18,0,0,1-1.8,2.72,6.09,6.09,0,0,1-3.57,1,6.23,6.23,0,0,1-2.92-.65,4.63,4.63,0,0,1-1.91-1.81,5.33,5.33,0,0,1-.67-2.72V630.9a5.33,5.33,0,0,1,.67-2.72,4.6,4.6,0,0,1,1.92-1.81,6.24,6.24,0,0,1,2.91-.65,6.12,6.12,0,0,1,2.88.65,4.64,4.64,0,0,1,1.89,1.81,5.33,5.33,0,0,1,.67,2.72Zm-8.06-1.87,5.18,0v-.48a3.06,3.06,0,0,0-.64-2.11,3,3,0,0,0-3.88,0,3.08,3.08,0,0,0-.66,2.12Z" transform="translate(0 -21)"/><path class="f" d="M293.94,639.4a5.93,5.93,0,0,1-3.64-1,3.54,3.54,0,0,1-1.45-2.8h3a1.31,1.31,0,0,0,.61,1,2.64,2.64,0,0,0,1.48.38H295a2.65,2.65,0,0,0,1.64-.43,1.39,1.39,0,0,0,.56-1.18,1.26,1.26,0,0,0-.5-1.06,3.07,3.07,0,0,0-1.51-.54l-1.63-.24a6.48,6.48,0,0,1-3.33-1.22,3.32,3.32,0,0,1-1-2.65,3.5,3.5,0,0,1,1.26-2.89,5.7,5.7,0,0,1,3.66-1H295a5.62,5.62,0,0,1,3.5,1,3.48,3.48,0,0,1,1.44,2.65h-3a1.17,1.17,0,0,0-.58-.88,2.61,2.61,0,0,0-1.36-.32h-.91a2.52,2.52,0,0,0-1.51.36,1.29,1.29,0,0,0-.48,1.1,1.25,1.25,0,0,0,.4,1,2.65,2.65,0,0,0,1.35.47l1.7.24a6.7,6.7,0,0,1,3.47,1.27,3.36,3.36,0,0,1,1.09,2.71,3.63,3.63,0,0,1-1.31,3A5.92,5.92,0,0,1,295,639.4Z" transform="translate(0 -21)"/><path class="f" d="M308.34,639.4a5.91,5.91,0,0,1-3.64-1,3.54,3.54,0,0,1-1.45-2.8h3a1.31,1.31,0,0,0,.61,1,2.64,2.64,0,0,0,1.48.38h1.06a2.65,2.65,0,0,0,1.64-.43,1.39,1.39,0,0,0,.56-1.18,1.26,1.26,0,0,0-.5-1.06,3.07,3.07,0,0,0-1.51-.54L308,633.5a6.48,6.48,0,0,1-3.33-1.22,3.32,3.32,0,0,1-1-2.65,3.5,3.5,0,0,1,1.26-2.89,5.7,5.7,0,0,1,3.66-1h.91a5.62,5.62,0,0,1,3.5,1,3.48,3.48,0,0,1,1.44,2.65h-3a1.17,1.17,0,0,0-.58-.88,2.61,2.61,0,0,0-1.36-.32h-.91a2.52,2.52,0,0,0-1.51.36,1.26,1.26,0,0,0-.48,1.1,1.25,1.25,0,0,0,.4,1,2.65,2.65,0,0,0,1.35.47l1.7.24a6.7,6.7,0,0,1,3.47,1.27,3.36,3.36,0,0,1,1.09,2.71,3.63,3.63,0,0,1-1.31,3,5.92,5.92,0,0,1-3.82,1.06Z" transform="translate(0 -21)"/><path class="f" d="M328.76,633.28H320.7v.94c0,1.87.88,2.8,2.64,2.8a3.24,3.24,0,0,0,1.61-.34,1.6,1.6,0,0,0,.76-1h3a4.18,4.18,0,0,1-1.8,2.72,6.1,6.1,0,0,1-3.58,1,6.19,6.19,0,0,1-2.91-.65,4.57,4.57,0,0,1-1.91-1.81,5.33,5.33,0,0,1-.67-2.72V630.9a5.33,5.33,0,0,1,.67-2.72,4.6,4.6,0,0,1,1.92-1.81,6.23,6.23,0,0,1,2.9-.65,6.06,6.06,0,0,1,2.88.65,4.61,4.61,0,0,1,1.9,1.81,5.33,5.33,0,0,1,.67,2.72Zm-8.06-1.87,5.18,0v-.48a3,3,0,0,0-.65-2.11,2.45,2.45,0,0,0-1.92-.72,2.48,2.48,0,0,0-1.95.73,3.08,3.08,0,0,0-.66,2.12Z" transform="translate(0 -21)"/><path class="f" d="M341.93,627a5,5,0,0,1,1.16,3.48v8.66h-3v-8.35a2.59,2.59,0,0,0-.62-1.84,2.65,2.65,0,0,0-3.51,0,2.75,2.75,0,0,0-.62,1.92v8.26h-3V626h2.93v2.52h0a3.09,3.09,0,0,1,1.11-2,3.67,3.67,0,0,1,2.37-.73A4,4,0,0,1,341.93,627Z" transform="translate(0 -21)"/><path class="f" d="M354.47,626h3v13.2a4,4,0,0,1-1.32,3.16,5.32,5.32,0,0,1-3.62,1.16h-4V641h3.91a2.11,2.11,0,0,0,1.51-.48,1.84,1.84,0,0,0,.51-1.41v-1l.07-2.18h-.17a3,3,0,0,1-1.14,1.84,3.79,3.79,0,0,1-2.27.63,4,4,0,0,1-3.17-1.37,5.48,5.48,0,0,1-1.17-3.69v-2.57a5.44,5.44,0,0,1,1.17-3.67,4,4,0,0,1,3.17-1.37,3.72,3.72,0,0,1,2.27.64,3,3,0,0,1,1.14,1.83h.17Zm-.68,9.16a2.65,2.65,0,0,0,.65-1.91V630.9a2.61,2.61,0,0,0-.65-1.9,2.3,2.3,0,0,0-1.77-.69,2.34,2.34,0,0,0-1.78.67,2.75,2.75,0,0,0-.62,1.92v2.31a2.75,2.75,0,0,0,.62,1.92,2.31,2.31,0,0,0,1.78.67A2.34,2.34,0,0,0,353.79,635.12Z" transform="translate(0 -21)"/><path class="f" d="M372,633.28H363.9v.94c0,1.87.88,2.8,2.64,2.8a3.24,3.24,0,0,0,1.61-.34,1.63,1.63,0,0,0,.76-1h3a4.22,4.22,0,0,1-1.8,2.72,6.12,6.12,0,0,1-3.58,1,6.19,6.19,0,0,1-2.91-.65,4.57,4.57,0,0,1-1.91-1.81,5.33,5.33,0,0,1-.67-2.72V630.9a5.33,5.33,0,0,1,.67-2.72,4.6,4.6,0,0,1,1.92-1.81,6.23,6.23,0,0,1,2.9-.65,6.06,6.06,0,0,1,2.88.65,4.61,4.61,0,0,1,1.9,1.81,5.33,5.33,0,0,1,.67,2.72Zm-8.06-1.87,5.18,0v-.48a3,3,0,0,0-.65-2.11,2.45,2.45,0,0,0-1.92-.72,2.48,2.48,0,0,0-1.95.73,3.08,3.08,0,0,0-.66,2.12Z" transform="translate(0 -21)"/><path class="f" d="M385.78,627a5.15,5.15,0,0,1,1.23,3.65v1h-3.15v-.75a2.73,2.73,0,0,0-.66-2,2.35,2.35,0,0,0-1.81-.7,2.32,2.32,0,0,0-1.8.71,2.78,2.78,0,0,0-.65,1.95v8.26h-3V626h2.84v2.52h0a3.48,3.48,0,0,1,1.22-2.06,3.82,3.82,0,0,1,2.4-.7A4.34,4.34,0,0,1,385.78,627Z" transform="translate(0 -21)"/><path class="f" d="M413.7,626.9a4.1,4.1,0,0,1,1.39,3.31v8.95h-2.91v-2.3h0a2.84,2.84,0,0,1-1.31,1.86,4.88,4.88,0,0,1-2.65.68,4.54,4.54,0,0,1-3.17-1.07,4.17,4.17,0,0,1,.12-5.93,5.61,5.61,0,0,1,3.67-1.06h3.29v-1.11a1.91,1.91,0,0,0-.6-1.51,2.56,2.56,0,0,0-1.73-.53,2.91,2.91,0,0,0-1.64.42,1.67,1.67,0,0,0-.76,1.19h-2.93a4.21,4.21,0,0,1,1.67-3,6,6,0,0,1,3.71-1.1A5.83,5.83,0,0,1,413.7,626.9Zm-2.41,9.62a2.05,2.05,0,0,0,.8-1.7v-1.61h-3.24a2,2,0,0,0-1.47.53,1.85,1.85,0,0,0-.55,1.41,1.81,1.81,0,0,0,.63,1.45,2.53,2.53,0,0,0,1.72.54A3.27,3.27,0,0,0,411.29,636.52Z" transform="translate(0 -21)"/><path class="f" d="M428.38,627.08a5.39,5.39,0,0,1,1.18,3.68v3.58a5.43,5.43,0,0,1-1.18,3.69,4,4,0,0,1-3.17,1.37,3.69,3.69,0,0,1-2.38-.73,3.06,3.06,0,0,1-1.12-2h-.07l.09,3.14v3.7h-3V626h2.93v2.52h0a3.06,3.06,0,0,1,1.12-2,3.69,3.69,0,0,1,2.38-.73A4,4,0,0,1,428.38,627.08Zm-1.82,3.82a2.71,2.71,0,0,0-.63-1.92,2.66,2.66,0,0,0-3.55,0,2.65,2.65,0,0,0-.65,1.9v3.32a2.65,2.65,0,0,0,.65,1.9,2.66,2.66,0,0,0,3.55,0,2.71,2.71,0,0,0,.63-1.92Z" transform="translate(0 -21)"/><path class="f" d="M442.78,627.08a5.39,5.39,0,0,1,1.18,3.68v3.58a5.43,5.43,0,0,1-1.18,3.69,4,4,0,0,1-3.17,1.37,3.69,3.69,0,0,1-2.38-.73,3.06,3.06,0,0,1-1.12-2H436l.09,3.14v3.7h-3V626h2.93v2.52h.05a3.06,3.06,0,0,1,1.12-2,3.69,3.69,0,0,1,2.38-.73A4,4,0,0,1,442.78,627.08ZM441,630.9a2.71,2.71,0,0,0-.63-1.92,2.66,2.66,0,0,0-3.55,0,2.65,2.65,0,0,0-.65,1.9v3.32a2.65,2.65,0,0,0,.65,1.9,2.66,2.66,0,0,0,3.55,0,2.71,2.71,0,0,0,.63-1.92Z" transform="translate(0 -21)"/><path class="f" d="M452.53,639.28a1.66,1.66,0,0,1-1.2-.44,1.51,1.51,0,0,1-.46-1.14,1.48,1.48,0,0,1,.46-1.14,1.62,1.62,0,0,1,1.2-.45h.72a1.65,1.65,0,0,1,1.2.45,1.68,1.68,0,0,1,0,2.29,1.72,1.72,0,0,1-1.23.43Zm1.46-5.71h-2.21l-.53-8.62v-3.31h3.27V625Z" transform="translate(0 -21)"/><path class="f" d="M81.5,590.9a4.08,4.08,0,0,1,1.4,3.31v8.95H80v-2.3h0a2.83,2.83,0,0,1-1.3,1.86,4.91,4.91,0,0,1-2.66.68,4.53,4.53,0,0,1-3.16-1.07,4.17,4.17,0,0,1,.12-5.93,5.61,5.61,0,0,1,3.67-1.06H79.9v-1.11a1.91,1.91,0,0,0-.6-1.51,2.56,2.56,0,0,0-1.73-.53,3,3,0,0,0-1.65.42,1.68,1.68,0,0,0-.75,1.19H72.24a4.18,4.18,0,0,1,1.67-3,6,6,0,0,1,3.71-1.1A5.79,5.79,0,0,1,81.5,590.9Zm-2.4,9.62a2.05,2.05,0,0,0,.8-1.7v-1.61H76.66a2,2,0,0,0-1.47.53,2,2,0,0,0,.07,2.86,2.58,2.58,0,0,0,1.73.54A3.27,3.27,0,0,0,79.1,600.52Z" transform="translate(0 -21)"/><path class="f" d="M104,603.16v-10.1h-3.63v-2.72H104v-1a3.45,3.45,0,0,1,1.1-2.69,4.22,4.22,0,0,1,2.95-1h4v2.64h-3.94a1.14,1.14,0,0,0-.82.29,1.06,1.06,0,0,0-.3.81v1h5.06v2.72H107v10.1Z" transform="translate(0 -21)"/><path class="f" d="M124.7,590.9a4.08,4.08,0,0,1,1.4,3.31v8.95h-2.91v-2.3h0a2.83,2.83,0,0,1-1.3,1.86,4.91,4.91,0,0,1-2.66.68,4.53,4.53,0,0,1-3.16-1.07,4.17,4.17,0,0,1,.12-5.93,5.61,5.61,0,0,1,3.67-1.06h3.29v-1.11a1.91,1.91,0,0,0-.6-1.51,2.56,2.56,0,0,0-1.73-.53,3,3,0,0,0-1.65.42,1.68,1.68,0,0,0-.75,1.19h-2.93a4.18,4.18,0,0,1,1.67-3,6,6,0,0,1,3.71-1.1A5.79,5.79,0,0,1,124.7,590.9Zm-2.4,9.62a2.05,2.05,0,0,0,.8-1.7v-1.61h-3.24a2,2,0,0,0-1.47.53,2,2,0,0,0,.07,2.86,2.58,2.58,0,0,0,1.73.54A3.27,3.27,0,0,0,122.3,600.52Z" transform="translate(0 -21)"/><path class="f" d="M134.54,603.4a5.9,5.9,0,0,1-3.63-1,3.51,3.51,0,0,1-1.45-2.8h3a1.28,1.28,0,0,0,.61,1,2.61,2.61,0,0,0,1.47.38h1.06a2.63,2.63,0,0,0,1.64-.43,1.4,1.4,0,0,0,.57-1.18,1.27,1.27,0,0,0-.51-1.06,3,3,0,0,0-1.51-.54l-1.63-.24a6.4,6.4,0,0,1-3.32-1.22,3.29,3.29,0,0,1-1.05-2.65,3.5,3.5,0,0,1,1.26-2.89,5.7,5.7,0,0,1,3.66-1h.91a5.65,5.65,0,0,1,3.51,1,3.48,3.48,0,0,1,1.44,2.65h-3a1.21,1.21,0,0,0-.59-.88,2.58,2.58,0,0,0-1.36-.32h-.91a2.52,2.52,0,0,0-1.51.36,1.29,1.29,0,0,0-.48,1.1,1.25,1.25,0,0,0,.41,1,2.6,2.6,0,0,0,1.34.47l1.71.24a6.66,6.66,0,0,1,3.46,1.27,3.37,3.37,0,0,1,1.1,2.71,3.66,3.66,0,0,1-1.31,3,6,6,0,0,1-3.83,1.06Z" transform="translate(0 -21)"/><path class="f" d="M150.94,603.16a4.09,4.09,0,0,1-3-1,3.91,3.91,0,0,1-1.07-2.92v-6.53h-3.57V590h3.57v-3.6h3V590H155v2.71h-5.06v6.53a1.09,1.09,0,0,0,1.22,1.25h3.6v2.71Z" transform="translate(0 -21)"/><path class="f" d="M162.94,607H160.3l1.92-7.46h3.84Z" transform="translate(0 -21)"/><path class="f" d="M192.14,603.4a5.9,5.9,0,0,1-3.63-1,3.51,3.51,0,0,1-1.45-2.8h3a1.28,1.28,0,0,0,.61,1,2.58,2.58,0,0,0,1.47.38h1.06a2.63,2.63,0,0,0,1.64-.43,1.4,1.4,0,0,0,.57-1.18,1.27,1.27,0,0,0-.51-1.06,3,3,0,0,0-1.51-.54l-1.63-.24a6.4,6.4,0,0,1-3.32-1.22,3.29,3.29,0,0,1-1.05-2.65,3.5,3.5,0,0,1,1.26-2.89,5.7,5.7,0,0,1,3.66-1h.91a5.65,5.65,0,0,1,3.51,1,3.48,3.48,0,0,1,1.44,2.65h-3a1.21,1.21,0,0,0-.59-.88,2.61,2.61,0,0,0-1.36-.32h-.91a2.52,2.52,0,0,0-1.51.36,1.29,1.29,0,0,0-.48,1.1,1.25,1.25,0,0,0,.41,1,2.6,2.6,0,0,0,1.34.47l1.7.24a6.7,6.7,0,0,1,3.47,1.27,3.36,3.36,0,0,1,1.09,2.71,3.65,3.65,0,0,1-1.3,3,6,6,0,0,1-3.83,1.06Z" transform="translate(0 -21)"/><path class="f" d="M213.24,603.16H201.67v-2.74h4.61v-7.75h-4V590h6.87v10.46h4.1ZM207.31,588a1.77,1.77,0,0,1-1.23-.43,1.64,1.64,0,0,1,0-2.3,1.73,1.73,0,0,1,1.23-.44h.48a1.78,1.78,0,0,1,1.23.44,1.62,1.62,0,0,1,0,2.3,1.86,1.86,0,0,1-1.25.43Z" transform="translate(0 -21)"/><path class="f" d="M226.74,590.64a3.85,3.85,0,0,1,.73,2.46v10.06h-2.64v-9.84a1.8,1.8,0,0,0-.29-1.1,1.1,1.1,0,0,0-1.68,0,1.8,1.8,0,0,0-.29,1.1v9.84h-2.15v-9.84a1.74,1.74,0,0,0-.31-1.1,1,1,0,0,0-.87-.39c-.71,0-1.06.5-1.06,1.49v9.84h-2.64V590H218v1.78h.12a2.3,2.3,0,0,1,.72-1.48,2.15,2.15,0,0,1,1.49-.54,1.93,1.93,0,0,1,1.37.53,2.8,2.8,0,0,1,.74,1.49h.12a2.3,2.3,0,0,1,.72-1.48,2.21,2.21,0,0,1,1.54-.54A2.36,2.36,0,0,1,226.74,590.64Z" transform="translate(0 -21)"/><path class="f" d="M240.19,591.08a5.44,5.44,0,0,1,1.18,3.68v3.58a5.48,5.48,0,0,1-1.18,3.69A4,4,0,0,1,237,603.4a3.74,3.74,0,0,1-2.39-.73,3.09,3.09,0,0,1-1.11-2h-.07l.09,3.14v3.7h-3V590h2.93v2.52h.05a3.09,3.09,0,0,1,1.11-2,3.74,3.74,0,0,1,2.39-.73A4,4,0,0,1,240.19,591.08Zm-1.82,3.82a2.71,2.71,0,0,0-.63-1.92,2.66,2.66,0,0,0-3.55,0,2.65,2.65,0,0,0-.65,1.9v3.32a2.65,2.65,0,0,0,.65,1.9,2.66,2.66,0,0,0,3.55,0,2.71,2.71,0,0,0,.63-1.92Z" transform="translate(0 -21)"/><path class="f" d="M252.21,603.16a4.25,4.25,0,0,1-3.15-1.18,4.15,4.15,0,0,1-1.19-3.09V588.35h-4v-2.71h7v13.25a1.56,1.56,0,0,0,.42,1.13,1.51,1.51,0,0,0,1.12.43h4.1v2.71Z" transform="translate(0 -21)"/><path class="f" d="M270.17,597.28H262.1v.94c0,1.87.88,2.8,2.64,2.8a3.24,3.24,0,0,0,1.61-.34,1.61,1.61,0,0,0,.77-1h3a4.18,4.18,0,0,1-1.8,2.72,6.06,6.06,0,0,1-3.57,1,6.26,6.26,0,0,1-2.92-.65,4.63,4.63,0,0,1-1.91-1.81,5.43,5.43,0,0,1-.67-2.72V594.9a5.43,5.43,0,0,1,.67-2.72,4.6,4.6,0,0,1,1.92-1.81,6.3,6.3,0,0,1,2.91-.65,6.12,6.12,0,0,1,2.88.65,4.58,4.58,0,0,1,1.89,1.81,5.33,5.33,0,0,1,.68,2.72Zm-8.07-1.87,5.19,0v-.48a3.06,3.06,0,0,0-.65-2.11,2.45,2.45,0,0,0-1.92-.72,2.51,2.51,0,0,0-2,.73,3.08,3.08,0,0,0-.66,2.12Z" transform="translate(0 -21)"/><path class="f" d="M297.5,590.9a4.07,4.07,0,0,1,1.39,3.31v8.95H296v-2.3h-.05a2.81,2.81,0,0,1-1.31,1.86,4.85,4.85,0,0,1-2.65.68,4.56,4.56,0,0,1-3.17-1.07,4.19,4.19,0,0,1,.12-5.93,5.66,5.66,0,0,1,3.68-1.06h3.28v-1.11a1.91,1.91,0,0,0-.6-1.51,2.53,2.53,0,0,0-1.72-.53,3,3,0,0,0-1.65.42,1.68,1.68,0,0,0-.75,1.19h-2.93a4.18,4.18,0,0,1,1.67-3,6,6,0,0,1,3.7-1.1A5.81,5.81,0,0,1,297.5,590.9Zm-2.4,9.62a2,2,0,0,0,.79-1.7v-1.61h-3.24a2,2,0,0,0-1.46.53,2,2,0,0,0,.07,2.86,2.56,2.56,0,0,0,1.73.54A3.29,3.29,0,0,0,295.1,600.52Z" transform="translate(0 -21)"/><path class="f" d="M312.13,591a5,5,0,0,1,1.16,3.48v8.66h-3v-8.35a2.59,2.59,0,0,0-.62-1.84,2.64,2.64,0,0,0-3.5,0,2.71,2.71,0,0,0-.63,1.92v8.26h-3V590h2.93v2.52h0a3.08,3.08,0,0,1,1.1-2,3.68,3.68,0,0,1,2.38-.73A4,4,0,0,1,312.13,591Z" transform="translate(0 -21)"/><path class="f" d="M324.64,585.64h3v17.52h-2.92v-2.52h-.05a3.06,3.06,0,0,1-1.12,2,3.69,3.69,0,0,1-2.38.73A4,4,0,0,1,318,602a5.39,5.39,0,0,1-1.18-3.68v-3.58a5.43,5.43,0,0,1,1.18-3.69,4,4,0,0,1,3.17-1.37,3.69,3.69,0,0,1,2.38.73,3.06,3.06,0,0,1,1.12,2h.07l-.1-3.14ZM324,600.12a2.69,2.69,0,0,0,.63-1.9V594.9A2.66,2.66,0,0,0,324,593a2.73,2.73,0,0,0-3.57,0,2.68,2.68,0,0,0-.62,1.9v3.32a2.75,2.75,0,0,0,.62,1.92,2.34,2.34,0,0,0,1.78.67A2.32,2.32,0,0,0,324,600.12Z" transform="translate(0 -21)"/><path class="f" d="M356,591a5.19,5.19,0,0,1,1.22,3.65v1h-3.14v-.75a2.73,2.73,0,0,0-.66-2,2.37,2.37,0,0,0-1.81-.7,2.32,2.32,0,0,0-1.8.71,2.74,2.74,0,0,0-.65,1.95v8.26h-3V590H349v2.52h0a3.44,3.44,0,0,1,1.23-2.06,3.82,3.82,0,0,1,2.4-.7A4.37,4.37,0,0,1,356,591Z" transform="translate(0 -21)"/><path class="f" d="M371,597.28H362.9v.94c0,1.87.88,2.8,2.64,2.8a3.24,3.24,0,0,0,1.61-.34,1.65,1.65,0,0,0,.77-1h3a4.18,4.18,0,0,1-1.8,2.72,6.1,6.1,0,0,1-3.58,1,6.19,6.19,0,0,1-2.91-.65,4.57,4.57,0,0,1-1.91-1.81,5.33,5.33,0,0,1-.67-2.72V594.9a5.33,5.33,0,0,1,.67-2.72,4.6,4.6,0,0,1,1.92-1.81,6.23,6.23,0,0,1,2.9-.65,6.06,6.06,0,0,1,2.88.65,4.61,4.61,0,0,1,1.9,1.81,5.33,5.33,0,0,1,.67,2.72Zm-8.06-1.87,5.18,0v-.48a3,3,0,0,0-.65-2.11,2.45,2.45,0,0,0-1.92-.72,2.48,2.48,0,0,0-1.95.73,3.08,3.08,0,0,0-.66,2.12Z" transform="translate(0 -21)"/><path class="f" d="M381.81,603.16a4.29,4.29,0,0,1-3.16-1.18,4.14,4.14,0,0,1-1.18-3.09V588.35h-4v-2.71h7v13.25a1.56,1.56,0,0,0,.42,1.13,1.51,1.51,0,0,0,1.11.43h4.11v2.71Z" transform="translate(0 -21)"/><path class="f" d="M400.43,603.16H388.87v-2.74h4.6v-7.75h-4V590h6.86v10.46h4.1ZM394.51,588a1.78,1.78,0,0,1-1.24-.43,1.64,1.64,0,0,1,0-2.3,1.74,1.74,0,0,1,1.24-.44H395a1.76,1.76,0,0,1,1.22.44,1.62,1.62,0,0,1,0,2.3A1.84,1.84,0,0,1,395,588Z" transform="translate(0 -21)"/><path class="f" d="M412.7,590.9a4.1,4.1,0,0,1,1.39,3.31v8.95h-2.9v-2.3h-.05a2.84,2.84,0,0,1-1.31,1.86,4.88,4.88,0,0,1-2.65.68,4.54,4.54,0,0,1-3.17-1.07,4.17,4.17,0,0,1,.12-5.93,5.63,5.63,0,0,1,3.67-1.06h3.29v-1.11a1.91,1.91,0,0,0-.6-1.51,2.56,2.56,0,0,0-1.73-.53,2.91,2.91,0,0,0-1.64.42,1.67,1.67,0,0,0-.76,1.19h-2.93a4.21,4.21,0,0,1,1.67-3,6,6,0,0,1,3.71-1.1A5.83,5.83,0,0,1,412.7,590.9Zm-2.4,9.62a2,2,0,0,0,.79-1.7v-1.61h-3.24a2,2,0,0,0-1.46.53,1.85,1.85,0,0,0-.56,1.41,1.81,1.81,0,0,0,.63,1.45,2.54,2.54,0,0,0,1.73.54A3.29,3.29,0,0,0,410.3,600.52Z" transform="translate(0 -21)"/><path class="f" d="M427.38,591.09a5.43,5.43,0,0,1,1.18,3.69v3.58a5.39,5.39,0,0,1-1.18,3.68,4,4,0,0,1-3.16,1.36,3.7,3.7,0,0,1-2.39-.73,3.06,3.06,0,0,1-1.12-2h0v2.52h-2.93V585.64h3v3.7l-.1,3.14h.07a3.06,3.06,0,0,1,1.12-2,3.7,3.7,0,0,1,2.39-.73A4,4,0,0,1,427.38,591.09Zm-1.82,3.81a2.68,2.68,0,0,0-.62-1.9,2.73,2.73,0,0,0-3.57,0,2.66,2.66,0,0,0-.63,1.89v3.32a2.69,2.69,0,0,0,.63,1.9,2.32,2.32,0,0,0,1.79.69,2.34,2.34,0,0,0,1.78-.67,2.75,2.75,0,0,0,.62-1.92Z" transform="translate(0 -21)"/><path class="f" d="M439.41,603.16a4.28,4.28,0,0,1-3.16-1.18,4.15,4.15,0,0,1-1.19-3.09V588.35h-4v-2.71h7v13.25a1.56,1.56,0,0,0,.42,1.13,1.53,1.53,0,0,0,1.12.43h4.1v2.71Z" transform="translate(0 -21)"/><path class="f" d="M457.36,597.28H449.3v.94c0,1.87.87,2.8,2.64,2.8a3.2,3.2,0,0,0,1.6-.34,1.61,1.61,0,0,0,.77-1h3a4.26,4.26,0,0,1-1.8,2.72,6.12,6.12,0,0,1-3.58,1,6.19,6.19,0,0,1-2.91-.65,4.57,4.57,0,0,1-1.91-1.81,5.33,5.33,0,0,1-.67-2.72V594.9a5.33,5.33,0,0,1,.67-2.72,4.6,4.6,0,0,1,1.92-1.81,6.23,6.23,0,0,1,2.9-.65,6.06,6.06,0,0,1,2.88.65,4.61,4.61,0,0,1,1.9,1.81,5.43,5.43,0,0,1,.67,2.72Zm-8.06-1.87,5.18,0v-.48a3.06,3.06,0,0,0-.65-2.11,2.45,2.45,0,0,0-1.92-.72,2.48,2.48,0,0,0-2,.73,3.08,3.08,0,0,0-.66,2.12Z" transform="translate(0 -21)"/><path class="f" d="M266.21,567.16h-3V552.42H258.6v-2.78h12.19v2.78h-4.58Z" transform="translate(0 -21)"/><path class="f" d="M284,555a5.19,5.19,0,0,1,1.22,3.65v1h-3.14v-.75a2.73,2.73,0,0,0-.66-2,2.37,2.37,0,0,0-1.81-.7,2.32,2.32,0,0,0-1.8.71,2.74,2.74,0,0,0-.65,1.95v8.26h-3V554H277v2.52h0a3.44,3.44,0,0,1,1.23-2.06,3.82,3.82,0,0,1,2.4-.7A4.37,4.37,0,0,1,284,555Z" transform="translate(0 -21)"/><path class="f" d="M290.35,571.48l1.87-5-5-12.48h3.27l2.42,6.77a25.66,25.66,0,0,1,.7,2.52c.24-1.06.46-1.9.67-2.52l2.25-6.77h3.17l-6.21,17.52Z" transform="translate(0 -21)"/><path class="f" d="M318.07,566.07a4.51,4.51,0,0,1-1.61-3.61h3a2.06,2.06,0,0,0,.78,1.7,3.28,3.28,0,0,0,2.12.62,3.06,3.06,0,0,0,2-.61,2.05,2.05,0,0,0,.73-1.67,2.3,2.3,0,0,0-.53-1.53,2.78,2.78,0,0,0-1.46-.91l-2-.56a5.82,5.82,0,0,1-3.17-1.89,5,5,0,0,1-1.13-3.31,4.54,4.54,0,0,1,1.49-3.57,5.75,5.75,0,0,1,4-1.33,5.89,5.89,0,0,1,4,1.31,4.5,4.5,0,0,1,1.53,3.51h-3a2.09,2.09,0,0,0-.67-1.62,2.8,2.8,0,0,0-1.9-.58,2.71,2.71,0,0,0-1.82.55,2,2,0,0,0-.65,1.56,2.49,2.49,0,0,0,.5,1.56,2.58,2.58,0,0,0,1.42.89l2.09.57a6,6,0,0,1,3.18,1.9,5.05,5.05,0,0,1,1.11,3.33,4.7,4.7,0,0,1-2.74,4.4,7.11,7.11,0,0,1-3,.62A6.4,6.4,0,0,1,318.07,566.07Z" transform="translate(0 -21)"/><path class="f" d="M338.2,567.16h-3V552.42h-4.59v-2.78h12.2v2.78H338.2Z" transform="translate(0 -21)"/><path class="f" d="M345.23,567.16V549.64h3.56l1.7,5.59c.29,1,.5,1.8.65,2.52a23.56,23.56,0,0,1,.62-2.54l1.63-5.57H357v17.52h-2.81v-5.45c0-1.47.07-3.14.2-5s.3-3.66.49-5.36l-2.35,8.28h-2.73l-2.43-8.28c.21,1.64.38,3.38.52,5.25s.2,3.57.2,5.12v5.45Z" transform="translate(0 -21)"/><path class="f" d="M371,562.36a4.92,4.92,0,0,1-.7,2.65,4.68,4.68,0,0,1-2,1.77,6.78,6.78,0,0,1-3,.62,6.7,6.7,0,0,1-2.95-.62,4.71,4.71,0,0,1-2-1.77,5,5,0,0,1-.69-2.65h3a2.47,2.47,0,0,0,.68,1.84,2.67,2.67,0,0,0,1.93.66,2.63,2.63,0,0,0,1.92-.68,2.33,2.33,0,0,0,.68-1.82V561a2.46,2.46,0,0,0-.68-1.85,2.64,2.64,0,0,0-1.92-.64h-2v-2.72l3.86-3.57H360.5v-2.57h9.79v2.71L366.35,556a5.19,5.19,0,0,1,3.36,1.59,4.85,4.85,0,0,1,1.23,3.42Z" transform="translate(0 -21)"/><path class="f" d="M374.58,567.16v-2.9l5.48-5.5a11.2,11.2,0,0,0,1.71-2.15,3.84,3.84,0,0,0,.54-1.93,2.66,2.66,0,0,0-.66-1.9,2.41,2.41,0,0,0-1.83-.69,2.67,2.67,0,0,0-2,.73,2.77,2.77,0,0,0-.72,2h-3a5.4,5.4,0,0,1,1.6-4,5.75,5.75,0,0,1,4.16-1.48,6.35,6.35,0,0,1,2.87.62,4.51,4.51,0,0,1,1.91,1.78,5.18,5.18,0,0,1,.67,2.66,6.42,6.42,0,0,1-.83,3.14,14,14,0,0,1-2.65,3.27l-3.65,3.58h7.35v2.71Z" transform="translate(0 -21)"/><path class="f" d="M396.66,554h3v13.2a4,4,0,0,1-1.32,3.16,5.32,5.32,0,0,1-3.62,1.16h-4V569h3.91a2.12,2.12,0,0,0,1.51-.48,1.84,1.84,0,0,0,.5-1.41v-1l.08-2.18h-.17a3,3,0,0,1-1.14,1.84,3.81,3.81,0,0,1-2.27.63A4,4,0,0,1,390,565a5.48,5.48,0,0,1-1.17-3.69v-2.57a5.44,5.44,0,0,1,1.17-3.67,4,4,0,0,1,3.17-1.37,3.74,3.74,0,0,1,2.27.64,3,3,0,0,1,1.14,1.83h.17Zm-.67,9.16a2.7,2.7,0,0,0,.65-1.91V558.9A2.65,2.65,0,0,0,396,557a2.3,2.3,0,0,0-1.77-.69,2.34,2.34,0,0,0-1.78.67,2.71,2.71,0,0,0-.62,1.92v2.31a2.71,2.71,0,0,0,.62,1.92,2.31,2.31,0,0,0,1.78.67A2.34,2.34,0,0,0,396,563.12Z" transform="translate(0 -21)"/><path class="f" d="M413.58,555a5.15,5.15,0,0,1,1.23,3.65v1h-3.15v-.75a2.73,2.73,0,0,0-.66-2,2.35,2.35,0,0,0-1.81-.7,2.32,2.32,0,0,0-1.8.71,2.78,2.78,0,0,0-.65,1.95v8.26h-3V554h2.84v2.52h0a3.43,3.43,0,0,1,1.22-2.06,3.82,3.82,0,0,1,2.4-.7A4.34,4.34,0,0,1,413.58,555Z" transform="translate(0 -21)"/><path class="f" d="M427.09,554.9a4.08,4.08,0,0,1,1.4,3.31v8.95h-2.91v-2.3h0a2.84,2.84,0,0,1-1.31,1.86,4.9,4.9,0,0,1-2.65.68,4.54,4.54,0,0,1-3.17-1.07,4.17,4.17,0,0,1,.12-5.93,5.61,5.61,0,0,1,3.67-1.06h3.29v-1.11a1.91,1.91,0,0,0-.6-1.51,2.56,2.56,0,0,0-1.73-.53,3,3,0,0,0-1.65.42,1.68,1.68,0,0,0-.75,1.19h-2.93a4.18,4.18,0,0,1,1.67-3,6,6,0,0,1,3.71-1.1A5.79,5.79,0,0,1,427.09,554.9Zm-2.4,9.62a2.05,2.05,0,0,0,.8-1.7v-1.61h-3.24a2,2,0,0,0-1.47.53,2,2,0,0,0,.07,2.86,2.58,2.58,0,0,0,1.73.54A3.27,3.27,0,0,0,424.69,564.52Z" transform="translate(0 -21)"/><path class="f" d="M442.73,554.64a3.85,3.85,0,0,1,.73,2.46v10.06h-2.64v-9.84a1.74,1.74,0,0,0-.29-1.1,1,1,0,0,0-.84-.39,1,1,0,0,0-.84.39,1.81,1.81,0,0,0-.28,1.1v9.84h-2.16v-9.84a1.74,1.74,0,0,0-.3-1.1,1.05,1.05,0,0,0-.88-.39c-.7,0-1.06.5-1.06,1.49v9.84h-2.64V554H434v1.78h.12a2.3,2.3,0,0,1,.72-1.48,2.15,2.15,0,0,1,1.49-.54,1.93,1.93,0,0,1,1.37.53,2.73,2.73,0,0,1,.74,1.49h.12a2.3,2.3,0,0,1,.72-1.48,2.21,2.21,0,0,1,1.54-.54A2.36,2.36,0,0,1,442.73,554.64Z" transform="translate(0 -21)"/><path class="f" d="M450.93,571h-2.64l1.92-7.46h3.84Z" transform="translate(0 -21)"/><path class="g" d="M29.59,278.29a4.09,4.09,0,0,1,1,2.88,4.6,4.6,0,0,1-1.53,3.63,6,6,0,0,1-4.14,1.36H19.29V268.64h5.38a6.17,6.17,0,0,1,4,1.21,4,4,0,0,1,1.49,3.3,3.75,3.75,0,0,1-.9,2.55A3.87,3.87,0,0,1,27,277,4.14,4.14,0,0,1,29.59,278.29Zm-7.37-7.15v4.72h2.4a2.66,2.66,0,0,0,1.87-.63,2.53,2.53,0,0,0,0-3.47,2.69,2.69,0,0,0-1.89-.62Zm2.52,12.52a2.94,2.94,0,0,0,2.08-.7,2.55,2.55,0,0,0,.75-1.94,2.68,2.68,0,0,0-.75-2,2.87,2.87,0,0,0-2.08-.74H22.22v5.37Z" transform="translate(0 -21)"/><path class="g" d="M35.09,285a5.12,5.12,0,0,1-1.44-3.83V273h3v8.18a2.8,2.8,0,0,0,.62,2,2.66,2.66,0,0,0,3.55,0,2.8,2.8,0,0,0,.63-2V273h3v8.21A5.13,5.13,0,0,1,43,285a5.48,5.48,0,0,1-4,1.4A5.45,5.45,0,0,1,35.09,285Z" transform="translate(0 -21)"/><path class="g" d="M59.59,286.16H48v-2.74h4.61v-7.75h-4V273h6.87v10.46h4.1ZM53.66,271a1.77,1.77,0,0,1-1.23-.43,1.64,1.64,0,0,1,0-2.3,1.73,1.73,0,0,1,1.23-.44h.48a1.76,1.76,0,0,1,1.23.44,1.62,1.62,0,0,1,0,2.3,1.84,1.84,0,0,1-1.25.43Z" transform="translate(0 -21)"/><path class="g" d="M69.77,286.16A4.26,4.26,0,0,1,66.61,285a4.15,4.15,0,0,1-1.19-3.09V271.35h-4v-2.71h7v13.25a1.56,1.56,0,0,0,.42,1.13,1.51,1.51,0,0,0,1.12.43h4.1v2.71Z" transform="translate(0 -21)"/><path class="g" d="M84.6,268.64h3v17.52H84.67v-2.52h0a3.06,3.06,0,0,1-1.12,2,3.69,3.69,0,0,1-2.38.73A4,4,0,0,1,78,285a5.44,5.44,0,0,1-1.18-3.68v-3.58A5.48,5.48,0,0,1,78,274.09a4,4,0,0,1,3.17-1.37,3.69,3.69,0,0,1,2.38.73,3.06,3.06,0,0,1,1.12,2h.07l-.09-3.14ZM84,283.12a2.69,2.69,0,0,0,.64-1.9V277.9A2.67,2.67,0,0,0,84,276a2.71,2.71,0,0,0-3.56,0,2.64,2.64,0,0,0-.63,1.9v3.32a2.71,2.71,0,0,0,.63,1.92,2.67,2.67,0,0,0,3.56,0Z" transform="translate(0 -21)"/><path class="g" d="M106.34,286.16l-2-13.2h2.5l1.1,8.09c.12.78.22,1.76.32,2.93l.4-2.93,1.25-8.09h2.33l1.22,8.09c.13.78.27,1.77.41,2.95.11-1.18.23-2.17.36-2.95l1.15-8.09h2.4l-2.06,13.2h-3.1L111.45,278l-.41-2.85c-.14,1.13-.28,2.09-.4,2.85l-1.2,8.14Z" transform="translate(0 -21)"/><path class="g" d="M131.59,286.16H120v-2.74h4.61v-7.75h-4V273h6.86v10.46h4.11ZM125.66,271a1.81,1.81,0,0,1-1.24-.43,1.67,1.67,0,0,1,0-2.3,1.77,1.77,0,0,1,1.24-.44h.48a1.76,1.76,0,0,1,1.22.44,1.62,1.62,0,0,1,0,2.3,1.81,1.81,0,0,1-1.24.43Z" transform="translate(0 -21)"/><path class="g" d="M141.28,286.16a4.08,4.08,0,0,1-3-1,3.91,3.91,0,0,1-1.07-2.92v-6.53h-3.58V273h3.58v-3.6h3V273h5.07v2.71h-5.07v6.53a1.1,1.1,0,0,0,1.23,1.25h3.6v2.71Z" transform="translate(0 -21)"/><path class="g" d="M158.48,274a5,5,0,0,1,1.16,3.48v8.66h-3v-8.35A2.59,2.59,0,0,0,156,276a2.65,2.65,0,0,0-3.51,0,2.75,2.75,0,0,0-.62,1.92v8.26h-3V268.64h3V273l-.07,2.52h.05a3,3,0,0,1,1.1-2,3.68,3.68,0,0,1,2.38-.73A4,4,0,0,1,158.48,274Z" transform="translate(0 -21)"/><path class="g" d="M20.69,321a4.92,4.92,0,0,1-1.52-3.78v-7.64a4.92,4.92,0,0,1,1.52-3.78,5.73,5.73,0,0,1,4-1.4,6.31,6.31,0,0,1,2.92.64,4.55,4.55,0,0,1,1.95,1.81,5.18,5.18,0,0,1,.7,2.73h-3a2.59,2.59,0,0,0-.66-1.89,2.52,2.52,0,0,0-1.89-.67,2.57,2.57,0,0,0-1.89.66,2.5,2.5,0,0,0-.68,1.88v7.66a2.34,2.34,0,0,0,2.57,2.56,2.5,2.5,0,0,0,1.87-.67,2.56,2.56,0,0,0,.68-1.89h3a5.18,5.18,0,0,1-.7,2.73,4.55,4.55,0,0,1-1.95,1.81,6.31,6.31,0,0,1-2.92.64A5.73,5.73,0,0,1,20.69,321Z" transform="translate(0 -21)"/><path class="g" d="M57.45,309.9a4.08,4.08,0,0,1,1.4,3.31v9H55.94v-2.3h0a2.83,2.83,0,0,1-1.3,1.86,4.91,4.91,0,0,1-2.66.68,4.53,4.53,0,0,1-3.16-1.07,4.17,4.17,0,0,1,.12-5.93,5.61,5.61,0,0,1,3.67-1.06h3.29v-1.11a1.91,1.91,0,0,0-.6-1.51,2.56,2.56,0,0,0-1.73-.53,3,3,0,0,0-1.65.42,1.68,1.68,0,0,0-.75,1.19H48.19a4.18,4.18,0,0,1,1.67-3,6,6,0,0,1,3.71-1.1A5.79,5.79,0,0,1,57.45,309.9Zm-2.4,9.62a2.05,2.05,0,0,0,.8-1.7v-1.61H52.61a2,2,0,0,0-1.47.53,2,2,0,0,0,.07,2.86,2.58,2.58,0,0,0,1.73.54A3.27,3.27,0,0,0,55.05,319.52Z" transform="translate(0 -21)"/><path class="g" d="M72.08,310a5,5,0,0,1,1.17,3.48v8.66h-3v-8.35a2.55,2.55,0,0,0-.63-1.84,2.64,2.64,0,0,0-3.5,0,2.71,2.71,0,0,0-.63,1.92v8.26h-3V309h2.93v2.52h0a3.08,3.08,0,0,1,1.1-2,3.68,3.68,0,0,1,2.38-.73A4,4,0,0,1,72.08,310Z" transform="translate(0 -21)"/><path class="g" d="M84.6,304.64h3v17.52H84.67v-2.52h0a3.06,3.06,0,0,1-1.12,2,3.69,3.69,0,0,1-2.38.73A4,4,0,0,1,78,321a5.44,5.44,0,0,1-1.18-3.68v-3.58A5.48,5.48,0,0,1,78,310.09a4,4,0,0,1,3.17-1.37,3.69,3.69,0,0,1,2.38.73,3.06,3.06,0,0,1,1.12,2h.07l-.09-3.14ZM84,319.12a2.69,2.69,0,0,0,.64-1.9V313.9A2.67,2.67,0,0,0,84,312a2.71,2.71,0,0,0-3.56,0,2.64,2.64,0,0,0-.63,1.9v3.32a2.71,2.71,0,0,0,.63,1.92,2.67,2.67,0,0,0,3.56,0Z" transform="translate(0 -21)"/><path class="g" d="M20.42,357.07a4.57,4.57,0,0,1-1.61-3.61h3a2.06,2.06,0,0,0,.78,1.7,3.29,3.29,0,0,0,2.13.62,3.07,3.07,0,0,0,2-.61,2.08,2.08,0,0,0,.73-1.67A2.35,2.35,0,0,0,27,352a2.78,2.78,0,0,0-1.46-.91l-2-.56a5.86,5.86,0,0,1-3.17-1.89,5.05,5.05,0,0,1-1.13-3.31,4.57,4.57,0,0,1,1.49-3.57,5.78,5.78,0,0,1,4-1.33,5.91,5.91,0,0,1,4,1.31,4.46,4.46,0,0,1,1.52,3.51h-3a2.05,2.05,0,0,0-.67-1.62,2.79,2.79,0,0,0-1.89-.58,2.72,2.72,0,0,0-1.83.55,2,2,0,0,0-.65,1.56,2.44,2.44,0,0,0,.51,1.56,2.55,2.55,0,0,0,1.41.89l2.09.57a6,6,0,0,1,3.18,1.9,5,5,0,0,1,1.12,3.33,4.69,4.69,0,0,1-2.75,4.4,7.05,7.05,0,0,1-3,.62A6.42,6.42,0,0,1,20.42,357.07Z" transform="translate(0 -21)"/><path class="g" d="M40.56,358.16h-3V343.42H33v-2.78H45.14v2.78H40.56Z" transform="translate(0 -21)"/><path class="g" d="M47.59,358.16V340.64h3.55l1.71,5.59c.28,1,.5,1.8.64,2.52a23.86,23.86,0,0,1,.63-2.54l1.63-5.57H59.3v17.52H56.49v-5.45q0-2.2.21-5c.13-1.88.3-3.66.49-5.36l-2.35,8.28H52.1l-2.42-8.28c.21,1.64.38,3.38.51,5.25s.21,3.57.21,5.12v5.45Z" transform="translate(0 -21)"/><path class="g" d="M73.32,353.36a5,5,0,0,1-.7,2.65,4.65,4.65,0,0,1-2,1.77,7.38,7.38,0,0,1-5.92,0,4.65,4.65,0,0,1-2-1.77,4.92,4.92,0,0,1-.7-2.65h3a2.43,2.43,0,0,0,.68,1.84,2.67,2.67,0,0,0,1.93.66,2.63,2.63,0,0,0,1.92-.68,2.32,2.32,0,0,0,.67-1.82V352a2.46,2.46,0,0,0-.67-1.85,2.67,2.67,0,0,0-1.92-.64h-2v-2.72l3.87-3.57H62.85v-2.57h9.8v2.71L68.71,347a5.24,5.24,0,0,1,3.36,1.59A4.84,4.84,0,0,1,73.29,352Z" transform="translate(0 -21)"/><path class="g" d="M76.94,358.16v-2.9l5.47-5.5a10.92,10.92,0,0,0,1.72-2.15,3.84,3.84,0,0,0,.54-1.93,2.66,2.66,0,0,0-.66-1.9,2.42,2.42,0,0,0-1.84-.69,2.65,2.65,0,0,0-2,.73,2.77,2.77,0,0,0-.72,2h-3a5.36,5.36,0,0,1,1.6-4,5.75,5.75,0,0,1,4.16-1.48,6.38,6.38,0,0,1,2.87.62A4.57,4.57,0,0,1,87,342.8a5.28,5.28,0,0,1,.67,2.66,6.53,6.53,0,0,1-.83,3.14,14.28,14.28,0,0,1-2.65,3.27l-3.65,3.58h7.34v2.71Z" transform="translate(0 -21)"/><path class="g" d="M92.68,357a5,5,0,0,1-1.51-3.78v-7.64a5,5,0,0,1,1.51-3.78,5.76,5.76,0,0,1,4.06-1.4,6.34,6.34,0,0,1,2.92.64,4.55,4.55,0,0,1,2,1.81,5.18,5.18,0,0,1,.7,2.73h-3a2.59,2.59,0,0,0-.66-1.89,2.5,2.5,0,0,0-1.88-.67,2.6,2.6,0,0,0-1.9.66,2.54,2.54,0,0,0-.67,1.88v7.66a2.59,2.59,0,0,0,.67,1.89,2.56,2.56,0,0,0,1.9.67,2.52,2.52,0,0,0,1.87-.67,2.55,2.55,0,0,0,.67-1.89h3a5.18,5.18,0,0,1-.7,2.73,4.55,4.55,0,0,1-2,1.81,6.34,6.34,0,0,1-2.92.64A5.76,5.76,0,0,1,92.68,357Z" transform="translate(0 -21)"/><path class="g" d="M107.08,357a5.12,5.12,0,0,1-1.44-3.83V345h3v8.18a2.8,2.8,0,0,0,.63,2,2.66,2.66,0,0,0,3.55,0,2.8,2.8,0,0,0,.62-2V345h3v8.21A5.09,5.09,0,0,1,115,357a6.29,6.29,0,0,1-7.91,0Z" transform="translate(0 -21)"/><path class="g" d="M129.74,346.09a5.48,5.48,0,0,1,1.18,3.69v3.58a5.44,5.44,0,0,1-1.18,3.68,4,4,0,0,1-3.17,1.36,3.72,3.72,0,0,1-2.39-.73,3.09,3.09,0,0,1-1.11-2h0v2.52h-2.93V340.64h3v3.7l-.09,3.14h.07a3.09,3.09,0,0,1,1.11-2,3.72,3.72,0,0,1,2.39-.73A4,4,0,0,1,129.74,346.09Zm-1.82,3.81a2.64,2.64,0,0,0-.63-1.9,2.71,2.71,0,0,0-3.56,0,2.62,2.62,0,0,0-.64,1.89v3.32a2.65,2.65,0,0,0,.64,1.9,2.67,2.67,0,0,0,3.56,0,2.71,2.71,0,0,0,.63-1.92Z" transform="translate(0 -21)"/><path class="g" d="M145.31,352.28h-8.06v.94c0,1.87.88,2.8,2.64,2.8a3.24,3.24,0,0,0,1.61-.34,1.65,1.65,0,0,0,.77-1h3a4.18,4.18,0,0,1-1.8,2.72,6.09,6.09,0,0,1-3.57,1,6.23,6.23,0,0,1-2.92-.65,4.63,4.63,0,0,1-1.91-1.81,5.33,5.33,0,0,1-.67-2.72V349.9a5.33,5.33,0,0,1,.67-2.72,4.6,4.6,0,0,1,1.92-1.81,6.24,6.24,0,0,1,2.91-.65,6.12,6.12,0,0,1,2.88.65,4.64,4.64,0,0,1,1.89,1.81,5.33,5.33,0,0,1,.67,2.72Zm-8.06-1.87,5.18-.05v-.48a3.06,3.06,0,0,0-.64-2.11,3,3,0,0,0-3.88,0,3.08,3.08,0,0,0-.66,2.12Z" transform="translate(0 -21)"/><path class="g" d="M159.28,358.16H149.2v-2.64h3.53V343.28H149.2v-2.64h10.08v2.64h-3.53v12.24h3.53Z" transform="translate(0 -21)"/><path class="g" d="M163.24,358.16V340.64h5.21a6.64,6.64,0,0,1,3.07.67,4.85,4.85,0,0,1,2,1.92,5.65,5.65,0,0,1,.72,2.88v6.55a5.65,5.65,0,0,1-.72,2.88,4.9,4.9,0,0,1-2,1.94,6.65,6.65,0,0,1-3.07.68Zm5.21-2.76a2.86,2.86,0,0,0,2.06-.74,2.63,2.63,0,0,0,.77-2v-6.55a2.58,2.58,0,0,0-.77-2,2.85,2.85,0,0,0-2.06-.73h-2.21v12Z" transform="translate(0 -21)"/><path class="g" d="M188.46,358.16H178V340.64h10.51v2.59h-7.55v4.59h6.71v2.59h-6.71v5.16h7.55Z" transform="translate(0 -21)"/><path class="g" d="M197.13,358.4a2,2,0,0,1-1.49-.61,2.24,2.24,0,0,1,0-3.05,2,2,0,0,1,1.49-.61h.62a2,2,0,0,1,1.49.61,2.24,2.24,0,0,1,0,3.05,2,2,0,0,1-1.49.61Z" transform="translate(0 -21)"/><rect class="e" x="4" y="385" width="12" height="12"/><rect class="h" x="4" y="403" width="12" height="12"/><path class="i" d="M19.68,414.94v-8.76h2.6a3.39,3.39,0,0,1,1.54.33,2.49,2.49,0,0,1,1,1,2.85,2.85,0,0,1,.36,1.44v3.28a2.85,2.85,0,0,1-.36,1.44,2.43,2.43,0,0,1-1,1,3.27,3.27,0,0,1-1.54.35Zm2.6-1.38a1.41,1.41,0,0,0,1-.38,1.3,1.3,0,0,0,.39-1v-3.28a1.31,1.31,0,0,0-.39-1,1.44,1.44,0,0,0-1-.36h-1.1v6Z" transform="translate(0 -21)"/><path class="i" d="M27.47,414.39a2.28,2.28,0,0,1-.81-1.81h1.5a1.05,1.05,0,0,0,.39.86,1.71,1.71,0,0,0,1.06.31,1.52,1.52,0,0,0,1-.31,1,1,0,0,0,.36-.83,1.16,1.16,0,0,0-.26-.77,1.42,1.42,0,0,0-.73-.46l-1-.27a2.9,2.9,0,0,1-1.58-.95,2.52,2.52,0,0,1-.57-1.66,2.27,2.27,0,0,1,.75-1.78,2.89,2.89,0,0,1,2-.66,2.93,2.93,0,0,1,2,.65,2.26,2.26,0,0,1,.76,1.76h-1.5a1,1,0,0,0-.33-.81,1.64,1.64,0,0,0-1.86,0,1,1,0,0,0-.33.78,1.3,1.3,0,0,0,.25.78,1.27,1.27,0,0,0,.71.44l1.05.29a3.1,3.1,0,0,1,1.59.95,2.53,2.53,0,0,1,.55,1.67,2.41,2.41,0,0,1-.36,1.31,2.29,2.29,0,0,1-1,.88,3.47,3.47,0,0,1-1.52.32A3.21,3.21,0,0,1,27.47,414.39Z" transform="translate(0 -21)"/><path class="i" d="M35.31,414.73a2.25,2.25,0,0,1-1-.91,2.67,2.67,0,0,1-.35-1.38v-3.77a2.67,2.67,0,0,1,.35-1.38,2.31,2.31,0,0,1,1-.91,3.54,3.54,0,0,1,2.94,0,2.37,2.37,0,0,1,1,.91,2.67,2.67,0,0,1,.34,1.38v3.77a2.65,2.65,0,0,1-.34,1.37,2.27,2.27,0,0,1-1,.92,3.44,3.44,0,0,1-2.94,0Zm2.46-1.33a1.27,1.27,0,0,0,.38-1v-3.77a1.27,1.27,0,0,0-.38-1,1.35,1.35,0,0,0-1-.36,1.38,1.38,0,0,0-1,.36,1.27,1.27,0,0,0-.37,1v3.77a1.27,1.27,0,0,0,.37,1,1.38,1.38,0,0,0,1,.36A1.35,1.35,0,0,0,37.77,413.4Zm-1.42-2.3a.64.64,0,0,1-.17-.48v-.18a.64.64,0,0,1,.17-.48.55.55,0,0,1,.43-.18.57.57,0,0,1,.44.18.73.73,0,0,1,.16.48v.18a.73.73,0,0,1-.16.48.57.57,0,0,1-.44.18A.55.55,0,0,1,36.35,411.1Z" transform="translate(0 -21)"/><path class="i" d="M53.4,416.44a5.22,5.22,0,0,1-2.82-1.7,4.5,4.5,0,0,1-1-3v-2.29a4.55,4.55,0,0,1,1-3,5.17,5.17,0,0,1,2.81-1.71v1.47a2.85,2.85,0,0,0-1.69,1.12,3.47,3.47,0,0,0-.62,2.09v2.29a3.42,3.42,0,0,0,.62,2.06,2.77,2.77,0,0,0,1.69,1.09Z" transform="translate(0 -21)"/><path class="i" d="M61.23,414.94H56v-8.76h1.5v7.36h3.72Z" transform="translate(0 -21)"/><path class="i" d="M68.29,414.94H63v-8.76h5.26v1.29H64.51v2.29h3.36v1.3H64.51v2.58h3.78Z" transform="translate(0 -21)"/><path class="i" d="M70.08,414.94v-8.76h2.6a3.42,3.42,0,0,1,1.54.33,2.49,2.49,0,0,1,1,1,2.85,2.85,0,0,1,.36,1.44v3.28a2.85,2.85,0,0,1-.36,1.44,2.43,2.43,0,0,1-1,1,3.3,3.3,0,0,1-1.54.35Zm2.6-1.38a1.41,1.41,0,0,0,1-.38,1.3,1.3,0,0,0,.39-1v-3.28a1.31,1.31,0,0,0-.39-1,1.44,1.44,0,0,0-1-.36h-1.1v6Z" transform="translate(0 -21)"/><path class="i" d="M78.51,414.73a2.33,2.33,0,0,1-1-.91,2.77,2.77,0,0,1-.34-1.38v-3.77a2.77,2.77,0,0,1,.34-1.38,2.4,2.4,0,0,1,1-.91,3.54,3.54,0,0,1,2.94,0,2.37,2.37,0,0,1,1,.91,2.67,2.67,0,0,1,.34,1.38v3.77a2.65,2.65,0,0,1-.34,1.37,2.27,2.27,0,0,1-1,.92,3.44,3.44,0,0,1-2.94,0ZM81,413.4a1.27,1.27,0,0,0,.37-1v-3.77a1.27,1.27,0,0,0-.37-1,1.56,1.56,0,0,0-2,0,1.27,1.27,0,0,0-.37,1v3.77a1.27,1.27,0,0,0,.37,1,1.56,1.56,0,0,0,2,0Zm-1.43-2.3a.68.68,0,0,1-.16-.48v-.18a.68.68,0,0,1,.16-.48.59.59,0,0,1,.44-.18.54.54,0,0,1,.43.18.69.69,0,0,1,.17.48v.18a.69.69,0,0,1-.17.48.54.54,0,0,1-.43.18A.59.59,0,0,1,79.54,411.1Z" transform="translate(0 -21)"/><path class="i" d="M85,414.92a2.77,2.77,0,0,0,1.68-1.09,3.42,3.42,0,0,0,.62-2.06v-2.29a3.47,3.47,0,0,0-.62-2.09A2.86,2.86,0,0,0,85,406.27V404.8a5.18,5.18,0,0,1,2.8,1.71,4.55,4.55,0,0,1,1,3v2.29a4.55,4.55,0,0,1-1,3,5.29,5.29,0,0,1-2.82,1.7Z" transform="translate(0 -21)"/><path class="i" d="M19.68,432.94v-8.76h2.6a3.39,3.39,0,0,1,1.54.33,2.49,2.49,0,0,1,1,1,2.85,2.85,0,0,1,.36,1.44v3.28a2.85,2.85,0,0,1-.36,1.44,2.43,2.43,0,0,1-1,1,3.27,3.27,0,0,1-1.54.35Zm2.6-1.38a1.41,1.41,0,0,0,1-.38,1.3,1.3,0,0,0,.39-1v-3.28a1.31,1.31,0,0,0-.39-1,1.44,1.44,0,0,0-1-.36h-1.1v6Z" transform="translate(0 -21)"/><path class="i" d="M27.47,432.39a2.28,2.28,0,0,1-.81-1.81h1.5a1.05,1.05,0,0,0,.39.86,1.71,1.71,0,0,0,1.06.31,1.52,1.52,0,0,0,1-.31,1,1,0,0,0,.36-.83,1.16,1.16,0,0,0-.26-.77,1.42,1.42,0,0,0-.73-.46l-1-.27a2.9,2.9,0,0,1-1.58-.95,2.52,2.52,0,0,1-.57-1.66,2.27,2.27,0,0,1,.75-1.78,2.89,2.89,0,0,1,2-.66,2.93,2.93,0,0,1,2,.65,2.26,2.26,0,0,1,.76,1.76h-1.5a1,1,0,0,0-.33-.81,1.64,1.64,0,0,0-1.86,0,1,1,0,0,0-.33.78,1.3,1.3,0,0,0,.25.78,1.27,1.27,0,0,0,.71.44l1.05.29a3.1,3.1,0,0,1,1.59.95,2.53,2.53,0,0,1,.55,1.67,2.41,2.41,0,0,1-.36,1.31,2.29,2.29,0,0,1-1,.88,3.47,3.47,0,0,1-1.52.32A3.21,3.21,0,0,1,27.47,432.39Z" transform="translate(0 -21)"/><path class="i" d="M39.8,432.94H34.19v-1.32h2.28v-6.11l-2.3,1.7v-1.58l2-1.45H38v7.44H39.8Z" transform="translate(0 -21)"/><path class="i" d="M53.4,434.44a5.22,5.22,0,0,1-2.82-1.7,4.5,4.5,0,0,1-1-3v-2.29a4.55,4.55,0,0,1,1-3,5.17,5.17,0,0,1,2.81-1.71v1.47a2.85,2.85,0,0,0-1.69,1.12,3.47,3.47,0,0,0-.62,2.09v2.29a3.42,3.42,0,0,0,.62,2.06,2.77,2.77,0,0,0,1.69,1.09Z" transform="translate(0 -21)"/><path class="i" d="M61.23,432.94H56v-8.76h1.5v7.36h3.72Z" transform="translate(0 -21)"/><path class="i" d="M68.29,432.94H63v-8.76h5.26v1.29H64.51v2.29h3.36v1.3H64.51v2.58h3.78Z" transform="translate(0 -21)"/><path class="i" d="M70.08,432.94v-8.76h2.6a3.42,3.42,0,0,1,1.54.33,2.49,2.49,0,0,1,1,1,2.85,2.85,0,0,1,.36,1.44v3.28a2.85,2.85,0,0,1-.36,1.44,2.43,2.43,0,0,1-1,1,3.3,3.3,0,0,1-1.54.35Zm2.6-1.38a1.41,1.41,0,0,0,1-.38,1.3,1.3,0,0,0,.39-1v-3.28a1.31,1.31,0,0,0-.39-1,1.44,1.44,0,0,0-1-.36h-1.1v6Z" transform="translate(0 -21)"/><path class="i" d="M83,432.94H77.38v-1.32h2.28v-6.11l-2.29,1.7v-1.58l2-1.45h1.77v7.44H83Z" transform="translate(0 -21)"/><path class="i" d="M85,432.92a2.77,2.77,0,0,0,1.68-1.09,3.42,3.42,0,0,0,.62-2.06v-2.29a3.47,3.47,0,0,0-.62-2.09A2.86,2.86,0,0,0,85,424.27V422.8a5.18,5.18,0,0,1,2.8,1.71,4.55,4.55,0,0,1,1,3v2.29a4.55,4.55,0,0,1-1,3,5.29,5.29,0,0,1-2.82,1.7Z" transform="translate(0 -21)"/><rect class="j" x="0.5" y="382" width="96.5" height="35"/><rect class="k" x="386" y="673" width="24" height="24"/><circle class="l" cx="398" cy="685" r="9"/><rect class="k" x="292" y="673" width="24" height="24"/><circle class="l" cx="304" cy="685" r="9"/><path class="k" d="M415.86,710.8h-1.5V702h1.5v3.54h1l1.64-3.54h1.64l-2,4.2,2,4.56H418.6L416.88,707h-1Z" transform="translate(0 -21)"/><path class="k" d="M427,710.8H421.7V702H427v1.3h-3.78v2.29h3.36v1.29h-3.36v2.58H427Z" transform="translate(0 -21)"/><path class="k" d="M430.69,710.8v-3.18L428.12,702h1.57l1.37,3a6.77,6.77,0,0,1,.41,1.25,6.1,6.1,0,0,1,.41-1.25l1.33-3h1.56l-2.57,5.58v3.18Z" transform="translate(0 -21)"/><path class="k" d="M437.17,710.6a2.33,2.33,0,0,1-1-.92,2.67,2.67,0,0,1-.34-1.38v-3.76a2.67,2.67,0,0,1,.34-1.38,2.25,2.25,0,0,1,1-.91,3.46,3.46,0,0,1,2.95,0,2.25,2.25,0,0,1,1,.91,2.77,2.77,0,0,1,.34,1.38v3.76a2.79,2.79,0,0,1-.34,1.38,2.33,2.33,0,0,1-1,.92,3.56,3.56,0,0,1-2.95,0Zm2.47-1.34a1.25,1.25,0,0,0,.37-1v-3.76a1.27,1.27,0,0,0-.37-1,1.56,1.56,0,0,0-2,0,1.27,1.27,0,0,0-.37,1v3.76a1.25,1.25,0,0,0,.37,1,1.56,1.56,0,0,0,2,0Zm-1.43-2.3a.69.69,0,0,1-.17-.48v-.18a.69.69,0,0,1,.17-.48.58.58,0,0,1,.43-.18.56.56,0,0,1,.44.18.69.69,0,0,1,.17.48v.18a.69.69,0,0,1-.17.48.56.56,0,0,1-.44.18A.58.58,0,0,1,438.21,707Z" transform="translate(0 -21)"/><path class="k" d="M319.86,710.8h-1.5V702h1.5v3.54h1l1.64-3.54h1.64l-2,4.2,2,4.56H322.6L320.88,707h-1Z" transform="translate(0 -21)"/><path class="k" d="M331,710.8H325.7V702H331v1.3h-3.78v2.29h3.36v1.29h-3.36v2.58H331Z" transform="translate(0 -21)"/><path class="k" d="M334.69,710.8v-3.18L332.12,702h1.57l1.37,3a6.77,6.77,0,0,1,.41,1.25,6.1,6.1,0,0,1,.41-1.25l1.33-3h1.56l-2.57,5.58v3.18Z" transform="translate(0 -21)"/><path class="k" d="M345.67,710.8h-5.62v-1.32h2.28v-6.11L340,705.08v-1.59l2-1.45h1.77v7.44h1.84Z" transform="translate(0 -21)"/><rect class="m" x="276" y="669.5" width="171" height="29.5"/><circle class="n" cx="290" cy="26" r="24"/><path d="M296.94,58.1h-16l.71-4.34h6.14L290.2,38.3l-6.95,4.61.84-5.18,6.34-4h5.51l-3.17,20h4.87Z" transform="translate(0 -21)"/><circle class="n" cx="231" cy="85" r="24"/><path d="M221.58,117.1l.73-4.71,8.95-7.48A14.76,14.76,0,0,0,234,102a4.87,4.87,0,0,0,.86-2.77,2.3,2.3,0,0,0-.65-1.75,2.58,2.58,0,0,0-1.86-.62,3.64,3.64,0,0,0-2.5.88,3.93,3.93,0,0,0-1.24,2.46h-5a8.93,8.93,0,0,1,3.16-5.71,9.68,9.68,0,0,1,6.39-2.14,7.43,7.43,0,0,1,5,1.57A5.28,5.28,0,0,1,240,98.2a9.51,9.51,0,0,1-.1,1.24A11.09,11.09,0,0,1,238,104a22.14,22.14,0,0,1-4.42,4.54l-5,4H238l-.7,4.51Z" transform="translate(0 -21)"/><circle class="n" cx="260" cy="145" r="24"/><path d="M269.14,152.72l-.7,4.31-5.74,4.44a6.57,6.57,0,0,1,3.72,1.91,5.2,5.2,0,0,1,1.32,3.67,8.88,8.88,0,0,1-.1,1.33l-.3,2a7.51,7.51,0,0,1-3,5.11,10.14,10.14,0,0,1-6.29,1.9,8.08,8.08,0,0,1-5.23-1.52,5.1,5.1,0,0,1-1.88-4.19,8,8,0,0,1,.1-1.3h5a3.53,3.53,0,0,0-.07.6,2,2,0,0,0,.7,1.65,3.06,3.06,0,0,0,2,.59,3.86,3.86,0,0,0,2.45-.73,3.29,3.29,0,0,0,1.15-2.11l.3-2a4.52,4.52,0,0,0,.07-.64,2,2,0,0,0-.7-1.65,3.12,3.12,0,0,0-2-.58h-2.87l.67-4.31,5.61-4.34h-9l.67-4.18Z" transform="translate(0 -21)"/><circle class="n" cx="200" cy="286" r="24"/><path d="M198.83,298.23l-1.07,6.35h.07a3.63,3.63,0,0,1,1.73-1.82,6.26,6.26,0,0,1,3-.65,5.43,5.43,0,0,1,4,1.35,5.1,5.1,0,0,1,1.39,3.82,9.16,9.16,0,0,1-.14,1.6l-.4,2.37a8,8,0,0,1-3,5.28,9.78,9.78,0,0,1-6.23,1.9,7.91,7.91,0,0,1-5.14-1.5,5,5,0,0,1-1.84-4.14c0-.2,0-.54.07-1h5a1.85,1.85,0,0,0,.55,1.72,2.92,2.92,0,0,0,2.05.62,3.63,3.63,0,0,0,2.37-.73,3.17,3.17,0,0,0,1.1-2.11l.4-2.37a3,3,0,0,0,0-.6c0-1.47-.88-2.2-2.64-2.2a3.56,3.56,0,0,0-2.74,1h-4.84l2.3-13.36h14.4l-.74,4.51Z" transform="translate(0 -21)"/><circle class="n" cx="212" cy="536" r="24"/><path d="M204.85,566.6a6.45,6.45,0,0,1-2-4.94A9.48,9.48,0,0,1,203,560a13.89,13.89,0,0,1,1.22-3.66,21.56,21.56,0,0,1,2.26-3.69l6.91-8.95H219l-9.24,11.56.2.13a6.05,6.05,0,0,1,2.15-1.64,6.55,6.55,0,0,1,2.69-.56,5,5,0,0,1,3.9,1.55,5.86,5.86,0,0,1,1.44,4.16,10.45,10.45,0,0,1-.13,1.63,9,9,0,0,1-5.16,6.9,10.82,10.82,0,0,1-4.63,1A7.53,7.53,0,0,1,204.85,566.6Zm9.07-3.58a4.32,4.32,0,0,0,1.21-3.17,2.82,2.82,0,0,0-.83-2.14,3.16,3.16,0,0,0-2.27-.8,4.14,4.14,0,0,0-2.81,1,4.36,4.36,0,0,0-1.43,2.69,4.55,4.55,0,0,0-.07.67,2.88,2.88,0,0,0,.85,2.17,3.23,3.23,0,0,0,2.29.8A4.12,4.12,0,0,0,213.92,563Z" transform="translate(0 -21)"/><circle class="n" cx="83" cy="658" r="24"/><path d="M81.06,690.1H75.55l11.92-19.7H80.86l-.54,3.51h-5l1.3-8.19H93.48l-.77,4.68Z" transform="translate(0 -21)"/><circle class="n" cx="131" cy="399" r="24"/><path d="M138.58,416.36a6,6,0,0,1-3,1.92A4.15,4.15,0,0,1,138,420.1a5.78,5.78,0,0,1,.9,3.22,5.84,5.84,0,0,1-.07,1.07,7.49,7.49,0,0,1-1.65,3.69,8.82,8.82,0,0,1-3.39,2.47,11.62,11.62,0,0,1-4.61.88,8.56,8.56,0,0,1-5.47-1.58,5.18,5.18,0,0,1-2-4.29,7.81,7.81,0,0,1,1.92-5.05,6.39,6.39,0,0,1,3.36-2.23,4,4,0,0,1-2.14-1.56,4.64,4.64,0,0,1-.8-2.72,4.5,4.5,0,0,1,.07-.93,7.12,7.12,0,0,1,1.53-3.49,8.3,8.3,0,0,1,3.19-2.36,11,11,0,0,1,4.33-.83,8.12,8.12,0,0,1,5.16,1.52,4.94,4.94,0,0,1,1.92,4.06,7.14,7.14,0,0,1-.1,1.1A6.68,6.68,0,0,1,138.58,416.36ZM133.2,421a3.14,3.14,0,0,0-2.24-.75,4,4,0,0,0-2.69,1,4.25,4.25,0,0,0-1.38,2.6,4.86,4.86,0,0,0-.07.7,2.79,2.79,0,0,0,.8,2.11,3.08,3.08,0,0,0,2.21.77,4,4,0,0,0,3-1.21,4.29,4.29,0,0,0,1.17-3.13A2.7,2.7,0,0,0,133.2,421Zm.92-5.32a3.83,3.83,0,0,0,1.28-2.44,3.39,3.39,0,0,0,0-.64,2.4,2.4,0,0,0-.75-1.88,3,3,0,0,0-2.09-.69,3.85,3.85,0,0,0-2.82,1.07,3.78,3.78,0,0,0-1.09,2.84,2.52,2.52,0,0,0,.77,1.94,3,3,0,0,0,2.1.7A3.79,3.79,0,0,0,134.12,415.71Z" transform="translate(0 -21)"/><circle class="n" cx="455" cy="662" r="24"/><path d="M448.42,694.1l9.25-11.55-.24-.14a5.78,5.78,0,0,1-2.12,1.64,6.4,6.4,0,0,1-2.69.57,5,5,0,0,1-3.9-1.56,5.85,5.85,0,0,1-1.44-4.15,9.45,9.45,0,0,1,.14-1.64,9.06,9.06,0,0,1,1.7-4.12,8.93,8.93,0,0,1,3.42-2.77,10.65,10.65,0,0,1,4.63-1,7.5,7.5,0,0,1,5.34,1.84,6.43,6.43,0,0,1,2,4.94,10.45,10.45,0,0,1-.13,1.63,13,13,0,0,1-1.19,3.64,20.59,20.59,0,0,1-2.25,3.71l-6.92,9Zm10-14.43a4.37,4.37,0,0,0,1.22-3.2,2.76,2.76,0,0,0-.85-2.12,3.27,3.27,0,0,0-2.29-.79,4.11,4.11,0,0,0-2.79,1,4.25,4.25,0,0,0-1.42,2.63,6.84,6.84,0,0,0-.07.71,2.91,2.91,0,0,0,.84,2.2,3.2,3.2,0,0,0,2.3.8A4.09,4.09,0,0,0,458.42,679.67Z" transform="translate(0 -21)"/><circle class="n" cx="296" cy="205" r="24"/><path d="M301.77,237.1h-5l.7-4.48H286.78l1.1-7,11.22-12.93h5.68l-12.42,14.33-.2,1.23h6l.83-5.2h5Z" transform="translate(0 -21)"/></svg>